<?xml version="1.0" standalone="no"?>
<!DOCTYPE svg PUBLIC "-//W3C//DTD SVG 1.1//EN" "http://www.w3.org/Graphics/SVG/1.1/DTD/svg11.dtd" >
<svg xmlns="http://www.w3.org/2000/svg" xmlns:xlink="http://www.w3.org/1999/xlink" version="1.1">
<metadata></metadata>
<defs>
<font id="bloomsburglight" horiz-adv-x="1086" >
<font-face units-per-em="2048" ascent="1638" descent="-410" />
<missing-glyph horiz-adv-x="396" />
<glyph unicode="&#xfb01;" horiz-adv-x="865" d="M100 0h134v976h398v-980h134v1116h-134v-2h-398v172q0 158 60 222q66 69 185 69.5t245 -83.5v134q-126 84 -290 84t-265 -140q-69 -96 -69 -286v-1282z" />
<glyph unicode="&#xfb02;" horiz-adv-x="868" d="M100 0h134v976h300v134h-300v172q0 158 60 222q66 69 173 69.5t165 -40.5v-1533h136v1614q-110 93 -304 93.5t-295 -139.5q-69 -96 -69 -286v-1282z" />
<glyph unicode="tt" horiz-adv-x="1110" d="M100 314q0 -162 76 -250q76 -86 218 -86q77 0 133 31v137q-57 -34 -133 -35q-66 -1 -109 33q-51 40 -51 114v723h350v-667q0 -162 76 -250q76 -86 218 -86q76 0 132 31v137q-56 -34 -132 -35q-66 -1 -110 33q-52 40 -51 114v723h293v133h-293v282h-133v-282h-350v282 h-134v-1082z" />
<glyph unicode="&#xd;" horiz-adv-x="50" />
<glyph horiz-adv-x="40" />
<glyph unicode=" "  horiz-adv-x="396" />
<glyph unicode="&#x09;" horiz-adv-x="396" />
<glyph unicode="&#xa0;" horiz-adv-x="396" />
<glyph unicode="!" horiz-adv-x="342" d="M100 0v142h142v-142h-142zM105 382v1179h132v-1179h-132z" />
<glyph unicode="&#x22;" horiz-adv-x="591" d="M100 1256v418h132v-418h-132zM359 1256v418h132v-418h-132z" />
<glyph unicode="#" horiz-adv-x="1273" d="M100 544h198l-106 -544h122l105 544h311l-106 -544h122l105 544h198l23 120h-198l78 400h198l24 122h-198l106 543h-122l-106 -543h-310l106 543h-122l-105 -543h-198l-23 -122h197l-77 -400h-198zM442 664l78 400h311l-77 -400h-312z" />
<glyph unicode="$" horiz-adv-x="1030" d="M100 150l96 94q62 -64 170 -107q74 -31 156 -27q94 3 162 50q112 76 112 256q0 134 -74 206q-62 60 -186 108l-50 18l-51 20q-60 22 -98 43q-63 34 -107 77q-112 109 -121 302q-4 80 24 154t81 130q42 44 95 72q70 36 155 45v130h133v-133q161 -20 295 -108l-74 -112 q-138 92 -300 92q-134 0 -208 -78q-72 -76 -68 -186q6 -140 81 -212q49 -48 126 -85q31 -14 71 -30l35 -14l36 -13q155 -60 223 -124q114 -110 116 -302q0 -140 -56 -241q-44 -77 -115 -126q-72 -49 -162 -65v-113h-133v108q-80 5 -148 33q-57 22 -105 52q-64 38 -111 86z " />
<glyph unicode="%" horiz-adv-x="1485" d="M100 1209q0 -139 76 -210t188 -71t189 71q76 72 76 210.5t-76 210.5q-77 72 -189 72t-188 -72t-76 -211zM204 64h158l877 1448h-159zM222 1209q0 93 40 129q40 34 102 34t103 -34q40 -35 40 -128t-40 -128q-41 -35 -103 -35q-64 0 -102 35q-40 34 -40 127zM856 305 q0 -139 76 -211t190 -71q112 -1 188 71t76 211t-76 211t-188 71q-114 1 -190 -71t-76 -211zM978 305q0 93 40 128t104 35q62 0 102 -35t40 -128t-40 -127q-40 -36 -102 -36q-64 0 -104 36q-40 34 -40 127z" />
<glyph unicode="&#x26;" horiz-adv-x="1155" d="M75 404q0 168 90 275q34 41 80 71q36 24 115 54q-72 34 -103 58q-40 30 -69 68q-76 98 -76 242q0 140 66 239q54 83 147 127q95 46 213 45q106 1 194 -39t146 -114l3 -2l-107 -86l-3 4q-38 48 -100 74q-61 26 -133 26q-28 0 -56 -4q-36 -5 -66 -15q-82 -28 -122 -91 q-50 -76 -44 -190q8 -92 68 -163q46 -53 136 -83q74 -25 158 -29h229v119h139v-119h96v-140h-96v-539q0 -30 21 -54q22 -22 53 -22q26 0 22 -2v-138h-4h-8h-5q-58 0 -107 25q-54 27 -94 103q-142 -128 -332 -128q-126 0 -226 48t-156 134q-70 106 -69 246zM214 430 q-8 -116 46 -197q38 -58 109 -89q69 -30 157 -30q126 0 211 68q104 82 104 251v298l-207 -1q-114 0 -204 -31q-91 -32 -142 -91q-66 -78 -74 -178z" />
<glyph unicode="'" horiz-adv-x="332" d="M100 1256v418h132v-418h-132z" />
<glyph unicode="(" horiz-adv-x="651" d="M100 207v637q0 428 162 612q62 72 148 104q66 24 141 24v-133q-178 0 -257 -200q-60 -151 -60 -407v-637q0 -376 129 -512q45 -48 105 -64q22 -6 47 -8q9 -1 19 -1h10h7v-134q-451 0 -451 719z" />
<glyph unicode=")" horiz-adv-x="651" d="M100 -378h8h8q10 0 20 1q24 2 46 8q60 16 106 64q130 136 130 512v637q0 256 -61 407q-80 200 -257 200v133q76 0 142 -24q84 -32 146 -104q162 -184 163 -612v-637q0 -719 -451 -719v134z" />
<glyph unicode="*" horiz-adv-x="737" d="M100 1250l171 100l-171 98l49 84l171 -98v198h98v-198l171 98l49 -84l-171 -98l171 -100l-49 -84l-171 98v-197h-98v197l-171 -98z" />
<glyph unicode="+" horiz-adv-x="1074" d="M100 505v134h369v370h133v-370h372v-134h-372v-371h-133v371h-369z" />
<glyph unicode="," horiz-adv-x="356" d="M100 -146h86l70 146v142h-142v-142h56z" />
<glyph unicode="-" horiz-adv-x="752" d="M100 504v133h552v-133h-552z" />
<glyph unicode="." horiz-adv-x="342" d="M100 0v142h142v-142h-142z" />
<glyph unicode="/" horiz-adv-x="959" d="M62 -100l696 1756h139l-695 -1756h-140z" />
<glyph unicode="0" horiz-adv-x="1253" d="M75 854q0 334 158 531q75 94 175 145q102 52 219 52q116 0 219 -52q100 -51 174 -145q76 -94 116 -218q42 -128 42 -461.5t-158 -531.5q-75 -94 -174 -144q-103 -52 -219 -53q-117 1 -219 53q-100 51 -175 144q-76 94 -116 218q-42 128 -42 462zM208 779.5 q0 -351.5 120 -510.5q57 -77 133 -117q78 -42 166 -42q87 0 165 42q76 41 134 117q120 159 120 511q0 351 -120 510q-58 76 -134 117q-78 42 -165 42q-88 0 -166 -42q-77 -41 -133 -117q-120 -159 -120 -510.5z" />
<glyph unicode="1" horiz-adv-x="560" d="M75 1426h252v-1426h133v1560h-385v-134z" />
<glyph unicode="2" horiz-adv-x="1088" d="M108 1146h134q-1 29 4 59q12 58 44 108q42 65 106 101t138 36q314 0 315 -294q0 -74 -32 -134t-673 -862v-160h844v134h-690q604 756 642 832q42 84 42 190q0 200 -118 314q-120 113 -330 113q-108 0 -202 -52t-154 -145q-48 -72 -64 -157q-8 -41 -6 -83z" />
<glyph unicode="3" horiz-adv-x="1099" d="M100 428q0 -198 130 -324t334 -126q127 0 229 49q102 48 160 136q71 107 71 235q0 200 -124 314q-46 42 -104 69q-44 20 -85 28q37 10 77 31q51 28 91 68q108 108 108 279q1 121 -67 223q-55 83 -152 128q-96 46 -216 46q-194 0 -316 -118q-122 -119 -122 -307v-33h133 v33q0 149 100 227q83 66 205 66q30 0 58 -4q37 -4 70 -16q84 -28 128 -95q52 -79 44 -175t-71 -171q-51 -60 -155 -92q-84 -26 -174 -26v-135q124 0 220 -35q90 -34 140 -92q70 -80 78 -185q8 -104 -48 -190q-40 -60 -112 -92q-73 -32 -166 -33q-132 1 -222 71 q-108 85 -108 246v36h-134v-36z" />
<glyph unicode="4" horiz-adv-x="1093" d="M100 416h664v-416h137v416h92v132h-92v564h-137v-564h-508l466 1012h-148l-474 -1028v-116z" />
<glyph unicode="5" horiz-adv-x="1099" d="M100 430q0 -200 130 -328q130 -126 334 -126q127 0 229 49t160 138q71 109 71 247q0 294 -171 424q-188 142 -539 62l25 530h560v134h-685l-44 -814h100l9 2q189 53 325 39q103 -11 168 -60q118 -89 118 -317q0 -98 -48 -174q-40 -60 -113 -93q-72 -33 -165 -33 q-132 0 -222 71q-108 87 -108 249h-134z" />
<glyph unicode="6" horiz-adv-x="1132" d="M75 530q1 -208 39 -290q36 -79 104 -139q142 -127 348 -127t348 127q68 59 105 139q38 82 38 217.5t-38 217.5q-37 79 -105 139q-142 127 -341 127t-338 -113q45 234 167 390q132 169 348 243l-45 126q-392 -132 -543 -525q-58 -150 -77 -334q-7 -66 -9 -140 q-1 -28 -1 -58zM208 458q0 173 104 261t254 88.5t254 -88.5q104 -88 104 -261.5t-104 -261.5t-254 -88t-254 88t-104 262z" />
<glyph unicode="7" horiz-adv-x="999" d="M100 1428h658l-466 -1427h146l462 1380v179h-800v-132z" />
<glyph unicode="8" horiz-adv-x="1131" d="M75 470q0 -150 38 -230q37 -78 104 -137q143 -125 349 -125t348 125q68 59 104 137q38 80 38 231t-74 257q-74 108 -188 146q74 31 124 120q48 85 48 192q0 106 -30 172t-84 116q-117 110 -286 110q-170 0 -286 -110q-54 -50 -84 -116q-31 -67 -31.5 -173.5t45.5 -188.5 q49 -89 128 -122q-112 -39 -187 -146q-76 -108 -76 -258zM208 455q0 171 104 259t254 87q150 1 254 -87q104 -87 104 -258.5t-104 -258.5t-254 -87t-254 87t-104 258zM299 1193q0 118 76 187q79 72 191 72t190 -72q76 -69 76 -187t-76 -187q-79 -72 -190 -72q-112 0 -191 72 q-76 69 -76 187z" />
<glyph unicode="9" horiz-adv-x="1132" d="M75 1098.5q0 -135.5 38 -217.5q37 -79 105 -139q142 -127 341 -127t338 113q-45 -234 -167 -390q-132 -169 -348 -243l45 -126q392 132 543 525q58 150 77 334q7 66 9 140q1 28 1 58q-1 208 -39 290q-36 79 -104 139q-142 127 -348 127t-348 -127q-68 -59 -105 -139 q-38 -82 -38 -217.5zM208 1098.5q0 173.5 104 261.5t254 88t254 -88t104 -262q0 -173 -104 -261t-254 -88.5t-254 88.5q-104 88 -104 261.5z" />
<glyph unicode=":" horiz-adv-x="342" d="M100 0v142h142v-142h-142zM100 918h142v142h-142v-142z" />
<glyph unicode=";" horiz-adv-x="356" d="M100 -146h86l70 146v142h-142v-142h56zM114 918h142v142h-142v-142z" />
<glyph unicode="&#x3c;" horiz-adv-x="821" d="M100 518l621 -249v135l-462 186l462 185v135l-621 -250v-142z" />
<glyph unicode="=" horiz-adv-x="822" d="M100 374v133h622v-133h-622zM100 678v134h622v-134h-622z" />
<glyph unicode="&#x3e;" horiz-adv-x="821" d="M100 269l621 249v142l-621 250v-135l462 -185l-462 -186v-135z" />
<glyph unicode="?" horiz-adv-x="962" d="M100 1220q24 157 132 260q106 103 253 103q170 1 274 -101q103 -102 103 -268q0 -100 -48 -193q-18 -37 -48 -78q-100 -128 -120 -157q-52 -79 -69 -144q-17 -64 -17 -182v-78h-137v78q1 140 23 224q23 84 159 279q61 77 83 117q38 66 38 134q0 136 -101 193 q-35 21 -114 33h-26q-95 0 -164 -71t-85 -173zM419 0v142h142v-142h-142z" />
<glyph unicode="@" horiz-adv-x="1726" d="M75 788q-1 -158 59 -302q58 -139 164 -247t242 -170q142 -63 296 -69v123q-130 5 -248 59q-116 52 -204 144t-136 208q-50 122 -50 254q0 135 52 258q50 120 143 212q91 92 211 142q124 52 259 52q136 0 259 -52q119 -50 211 -142t143 -212q52 -124 52 -258 q0 -61 -12 -109q-16 -61 -52 -95q-46 -42 -124 -42h-18h-8l-6 2q-66 6 -110 46q-54 50 -54 134v334q-78 39 -160 58q-74 17 -148 17q-132 0 -220 -88t-89 -219v-57q1 -131 89 -219t220 -88q76 0 142 32l80 40l13 -17l5 -5l4 -6q30 -36 76 -57q60 -28 138 -28l4 -1 q156 -14 248 72q106 96 106 296q0 160 -62 306q-60 142 -170 250q-110 110 -250 170q-146 62 -307 62t-307 -62q-141 -60 -250 -170q-109 -109 -169 -250q-62 -146 -62 -306zM656 769v57q0 78 50 128q52 50 130 50q82 0 161 -24l19 -6v-331l-12 -8q-38 -25 -88 -36 q-38 -9 -80 -9q-78 0 -130 51q-50 50 -50 128z" />
<glyph unicode="A" horiz-adv-x="1177" d="M62 0l450 1560h153l449 -1560h-139l-116 404h-541l-116 -404h-140zM356 538h464l-232 807z" />
<glyph unicode="B" horiz-adv-x="1171" d="M100 40l44 -16q138 -50 298 -50t203 6q117 14 203 50q248 106 248 398q0 289 -272 395q138 60 186 166q36 78 36 176q0 69 -19 131q-24 78 -78 137q-139 151 -463 151q-208 0 -342 -51l-44 -17v-1476zM234 138v608h252q254 0 365 -74q59 -38 85 -98t26 -146t-26 -146 q-27 -60 -85 -98q-111 -74 -365 -74q-142 0 -252 28zM234 882v538q106 28 252 28q212 0 319 -71t107 -212q0 -140 -107 -211t-319 -72h-252z" />
<glyph unicode="C" horiz-adv-x="1047" d="M75 708q0 374 44 494q43 116 123 202t189 132q110 47 237 47h5q135 0 269 -34q4 1 6 -1l-1 -139q-1 -1 -5 1q-130 36 -269 36q-209 0 -335 -138q-126 -137 -126 -528t126 -528q126 -138 335 -138q105 0 213 22l56 14l3 2v-140l-3 -1l-66 -15q-108 -20 -203 -20 q-130 0 -242 48q-108 46 -189 131q-167 179 -167 553z" />
<glyph unicode="D" horiz-adv-x="1196" d="M100 52q172 -76 422 -76q132 0 242 46t190 132t122 202q45 123 45 501q0 371 -167 549q-80 86 -190 132q-112 46 -242 46q-251 0 -422 -60v-1472zM237 151v1266q113 30 285 30q210 0 336 -138q126 -137 126 -527q0 -394 -126 -531q-126 -138 -336 -138q-172 0 -285 38z " />
<glyph unicode="E" horiz-adv-x="919" d="M100 0v1560h694v-134h-560v-576h540v-134h-540v-582h585v-134h-719z" />
<glyph unicode="F" horiz-adv-x="869" d="M100 0h134v678h518v133h-518v615h560v134h-694v-1560z" />
<glyph unicode="G" horiz-adv-x="1171" d="M75 708.5q0 373.5 44 493.5q43 116 123 202t189 132q110 47 237 47h5q181 -1 311 -55q64 -26 87 -47v-129l-73 36q-135 58 -325 58q-209 0 -335 -138q-126 -137 -126 -527.5t126 -528.5t335 -138q182 0 261 30v671h137v-777q-20 -12 -85 -28q-132 -33 -313 -33 q-130 0 -242 47q-108 46 -189 132q-167 179 -167 552.5z" />
<glyph unicode="H" horiz-adv-x="1167" d="M100 2v1556h128v-714h710v714h129v-1556h-129v714h-710v-714h-128z" />
<glyph unicode="I" horiz-adv-x="333" d="M100 0h134v1560h-134v-1560z" />
<glyph unicode="J" horiz-adv-x="723" d="M75 -8v141q55 -23 117 -23q60 0 116 23q54 23 94 64q42 43 64 95q24 56 24 116v1150h133v-1150q0 -88 -34 -168q-33 -78 -93 -138t-136 -92q-80 -34 -168 -34q-60 0 -117 16z" />
<glyph unicode="K" horiz-adv-x="1035" d="M100 0h134v752l573 -752h166l-629 835l570 725h-166l-514 -646v646h-134v-1560z" />
<glyph unicode="L" horiz-adv-x="869" d="M100 0v1560h134v-1426h560v-134h-694z" />
<glyph unicode="M" horiz-adv-x="1329" d="M100 0v1558h144l420 -1290l422 1290h144v-1558h-132v1114l-366 -1114h-134l-366 1114v-1114h-132z" />
<glyph unicode="N" horiz-adv-x="1183" d="M100 0v1560h130l721 -1284v1285h132v-1561h-132l-719 1286v-1286h-132z" />
<glyph unicode="O" horiz-adv-x="1275" d="M75 780q0 442 157 622q76 88 178 134q104 47 223 47h5h5q121 0 223 -47q102 -46 178 -134q157 -180 157 -620q0 -444 -157 -624q-76 -88 -178 -134q-102 -47 -223 -47h-5h-5q-119 0 -223 47q-102 46 -178 134q-157 180 -157 622zM208 777q0 -387 118 -527t312 -140 q196 0 312 140q117 140 117 530t-117 530q-116 140 -312 140q-194 0 -312 -140t-118 -533z" />
<glyph unicode="P" horiz-adv-x="1140" d="M100 0h134v592q150 -32 284 -32q296 0 448 186q56 68 81 158q18 66 18 136q0 30 -3 60q-4 40 -12 78q-24 102 -78 180q-68 100 -182 156q-137 66 -272 66q-86 0 -171 -14q-68 -10 -132 -30q-73 -22 -115 -46v-1490zM234 734v663q48 16 106 27q80 14 170 14 q202 0 320 -132q88 -100 88 -266t-118 -254q-120 -88 -290 -88q-130 0 -276 36z" />
<glyph unicode="Q" horiz-adv-x="1275" d="M75 780v-6q0 -437 157 -616q74 -86 178 -133q100 -46 215 -48q54 -116 159 -182q124 -79 304 -79h50v134h-50q-224 0 -318 142q50 12 96 33q103 47 178 133q156 180 156 622t-156 622q-75 87 -178 134q-104 47 -228 47t-228 -47q-104 -48 -178 -134q-157 -179 -157 -616 v-6zM209 780q1 390 117 530q118 140 312 140q195 0 312 -140q118 -140 118 -530t-118 -529q-117 -140 -312 -140q-194 0 -312 140q-116 139 -117 529z" />
<glyph unicode="R" horiz-adv-x="1183" d="M100 0v1498q44 22 120 42q65 18 138 30q88 13 178 13q142 0 284 -63q120 -53 192 -149q57 -75 80 -171q10 -36 14 -75q2 -34 2 -57q0 -67 -18 -129q-26 -85 -84 -151q-76 -84 -186 -129l288 -659h-152l-272 622q-70 -12 -148 -12q-144 0 -302 22v-632h-134zM234 766 q162 -24 302 -24q180 0 310 84q128 84 128 243q0 161 -95 257q-127 126 -343 126q-98 0 -182 -14q-64 -10 -120 -28v-644z" />
<glyph unicode="S" horiz-adv-x="1073" d="M100 148q49 -46 117 -84q51 -28 111 -51q94 -35 202 -35q162 0 276 79q70 49 112 124q56 97 56 233q0 188 -122 299q-46 42 -116 77q-27 14 -194 79t-216 109q-82 72 -83 210q0 108 66 178q82 86 232 86q175 0 323 -93l70 113q-181 112 -393 112q-115 0 -207 -42 q-70 -32 -122 -84q-102 -108 -102 -276q0 -186 122 -297q48 -42 118 -78q28 -14 195 -79.5t215 -109.5q79 -70 80 -204q0 -171 -111 -248q-72 -50 -179 -55h-17q-84 0 -158 27q-115 42 -183 106z" />
<glyph unicode="T" horiz-adv-x="1061" d="M75 1426v134h911v-134h-388v-1426h-134v1426h-389z" />
<glyph unicode="U" horiz-adv-x="1150" d="M100 422q0 -446 531 -446q166 0 309 66q72 32 110 66v1454h-134v-1375q-108 -78 -285 -78h-3q-394 0 -394 313v1140h-134v-1140zM100 422q0 -446 531 -446q166 0 309 66q72 32 110 66v1454h-134v-1375q-108 -78 -285 -78h-3q-394 0 -394 313v1140h-134v-1140z" />
<glyph unicode="V" horiz-adv-x="1177" d="M62 1560l450 -1560h153l449 1560h-139l-387 -1344l-386 1344h-140z" />
<glyph unicode="W" horiz-adv-x="1739" d="M62 1560h136l304 -1288l293 1288h149l294 -1288l302 1288h137l-363 -1560h-153l-291 1306l-292 -1306h-152z" />
<glyph unicode="X" horiz-adv-x="1121" d="M75 0l410 784l-407 776h151l331 -622l332 622h152l-408 -776l410 -784h-152l-334 629l-334 -629h-151z" />
<glyph unicode="Y" horiz-adv-x="1071" d="M62 1560h145l329 -742l328 742h144l-406 -918v-642h-132v642z" />
<glyph unicode="Z" horiz-adv-x="1008" d="M100 0v124l660 1304h-660v132h808v-131l-656 -1297h656v-132h-808z" />
<glyph unicode="[" horiz-adv-x="568" d="M100 -506v2072h368v-132h-236v-1808h236v-132h-368z" />
<glyph unicode="\" horiz-adv-x="959" d="M62 1656h140l695 -1756h-139z" />
<glyph unicode="]" horiz-adv-x="568" d="M100 -374h236v1808h-236v132h368v-2072h-368v132z" />
<glyph unicode="^" horiz-adv-x="585" d="M62 982h143l87 317l88 -317h142l-166 578h-127z" />
<glyph unicode="_" horiz-adv-x="963" d="M62 -152h838v-132h-838v132z" />
<glyph unicode="`" horiz-adv-x="509" d="M100 1682l170 -379h140l-170 379h-140z" />
<glyph unicode="a" horiz-adv-x="1040" d="M50 343.5q0 -155.5 128 -260.5q130 -106 322 -106q170 0 306 62q62 28 134 78v579q0 184 -90 297q-122 151 -390 151q-150 0 -306 -32v-138q152 36 306 36q288 0 337 -220h-187h-74h-36q-192 0 -322 -106q-61 -50 -94 -117q-34 -68 -34 -223.5zM273 589q91 67 227 67h115 q117 0 191 -1v-451l-25 -18q-15 -10 -25 -16q-30 -18 -60 -30q-74 -28 -196 -28q-137 0 -227 66t-90 203q0 141 90 208z" />
<glyph unicode="b" horiz-adv-x="1130" d="M100 142q60 -51 134 -87q160 -79 356 -79q103 0 195 38q87 38 155 106q66 68 104 158q37 93 37 274q0 189 -37 284q-36 92 -104 161q-67 70 -155 108q-93 39 -195 39h-42q-25 0 -46 -1q-54 -1 -96 -9q-114 -20 -172 -82v623h-134v-1533zM234 208v664q62 84 168 116 q74 22 188 22q154 0 256 -107q101 -107 101 -346t-101 -343q-100 -104 -256 -104q-86 0 -164 18q-108 24 -192 80z" />
<glyph unicode="c" horiz-adv-x="871" d="M50 507.5q0 -243.5 140 -387.5q66 -68 156 -104q92 -38 194 -38q154 0 232 20v137q-74 -24 -232 -24h-3q-154 0 -253 103q-101 102 -101 345q0 246 101 350q100 103 256 103q148 0 232 -24v133q-98 25 -232 25q-104 0 -194 -38q-88 -38 -156 -106q-66 -68 -102 -158 q-38 -93 -38 -336.5z" />
<glyph unicode="d" horiz-adv-x="1130" d="M50 505q0 -240 140 -384q66 -67 156 -105t194 -39q196 0 357 79q73 36 133 88v1530h-133v-624q-57 62 -171 82q-44 8 -98 10h-46h-21h-21q-104 0 -194 -38t-156 -106t-102 -159q-38 -94 -38 -334zM284 904q100 104 256 104q113 0 188 -22q108 -34 169 -118v-659 q-84 -55 -192 -79q-79 -18 -165 -18q-156 0 -256 104q-101 103 -101 342q0 241 101 346z" />
<glyph unicode="e" horiz-adv-x="1052" d="M50 505q0 -239 140 -382q66 -67 156 -105t194 -38q133 0 212 16q54 10 162 50v147q-130 -51 -166 -60q-78 -20 -208 -20q-156 0 -256 104t-100 263v28h818v95q0 321 -156 449q-107 87 -302 87h-4q-104 0 -194 -38q-90 -37 -156 -105t-102 -159q-38 -93 -38 -332zM184 642 q2 158 102 260q100 104 254 104q150 0 220 -57q100 -81 108 -307h-684z" />
<glyph unicode="f" horiz-adv-x="742" d="M100 0h134v976h318v134h-318v172q0 158 60 222q66 70 242 70q29 0 106 -11v135q-74 10 -106 10q-266 0 -367 -140q-69 -96 -69 -286v-1282z" />
<glyph unicode="g" horiz-adv-x="988" d="M50 720q0 -196 44 -280q42 -82 117 -136q-93 -64 -93 -156q0 -126 152 -196q53 -24 168.5 -47t133.5 -27q58 -10 97 -25q113 -43 113 -131q0 -78 -92 -128q-84 -47 -202 -47h-5q-132 0 -238 48q-18 8 -35 18l-42 28l-2 1l-1 2v-156q31 -20 85 -40q48 -18 100 -28 q66 -13 133 -13q182 0 305 85q128 88 128 228v14q0 156 -150 230q-56 28 -138 46q-32 8 -59.5 12t-108 18t-112.5 24q-90 30 -90 77q0 49 50 71q18 8 42 12q18 4 39 4q48 -8 94 -8q185 0 309 114q124 115 124 330q0 216 -81 320h115v134h-301q-79 28 -166 28 q-185 0 -309 -115t-124 -311zM183 682.5q0 177.5 85 253.5q84 76 215 76t215 -76q85 -76 85 -251q0 -180 -85 -256q-84 -76 -215 -76t-215 76q-85 76 -85 253.5z" />
<glyph unicode="h" d="M100 0h134v926l27 14q16 8 29 14q34 16 64 25q78 25 165 25q167 0 245 -64q88 -72 88 -248v-692h134v692q0 184 -92 298q-119 148 -375 148q-151 0 -285 -56v592h-134v-1674z" />
<glyph unicode="i" horiz-adv-x="333" d="M100 -4h134v1116h-134v-1116zM100 1214h134v134h-134v-134z" />
<glyph unicode="j" horiz-adv-x="341" d="M-162 -463v-134q210 18 312 137q91 106 91 285v1285h-133v-1285q0 -153 -83 -222q-65 -54 -187 -66zM108 1214h133v134h-133v-134z" />
<glyph unicode="k" horiz-adv-x="955" d="M100 0h134v540l479 -540h193l-525 589l515 523h-200l-462 -476v1040h-134v-1676z" />
<glyph unicode="l" horiz-adv-x="333" d="M100 0h134v1676h-134v-1676z" />
<glyph unicode="m" horiz-adv-x="1613" d="M100 0h134v936q46 38 89 54q62 24 151 24q92 0 150 -25q60 -25 92 -79q46 -77 47 -232v-678h134v678v7q0 155 -43 253q45 36 88 52q62 24 149 24q157 0 223 -76t66 -260v-678h134v678q0 201 -70 310q-100 159 -353 159q-111 0 -203 -30q-68 -22 -120 -59q-104 89 -294 89 q-166 -1 -286 -67q-60 -33 -88 -66v-1014z" />
<glyph unicode="n" d="M100 1h134v934l27 14q16 7 29 13q34 16 64 26q75 25 159 25h6q167 0 245 -65q88 -74 88 -248v-699h134v699q0 184 -92 299q-119 147 -375 147q-166 0 -309 -66q-72 -32 -110 -66v-1013z" />
<glyph unicode="o" horiz-adv-x="1183" d="M50 561q0 -187 41 -281q39 -92 113 -160t172 -105q101 -38 216 -38t216 38q98 37 171 105t113 160q42 95 42 285q0 184 -42 277q-40 91 -113 160q-155 144 -387 144t-388 -144q-74 -68 -113 -160q-41 -94 -41 -281zM299 908q115 104 293 104t292 -104q116 -104 116 -346 t-116 -346q-115 -104 -292.5 -104t-292.5 104q-115 103 -115 342q0 246 115 350z" />
<glyph unicode="p" horiz-adv-x="1130" d="M100 -685h134v755q58 -62 172 -82q42 -8 96 -10q21 -1 46 -1h42q103 1 195 39q87 38 155 106q66 68 104 160q37 93 37 329q0 3 -1 6q0 241 -140 385q-67 70 -155 106q-93 38 -195 38q-196 0 -356 -79q-74 -36 -134 -88v-1664zM234 252v661q84 57 192 81q80 18 164 18 q155 0 256 -105t101 -345q0 -242 -101 -346q-100 -104 -256 -104q-114 0 -188 22q-108 33 -168 118z" />
<glyph unicode="q" horiz-adv-x="1130" d="M50 617q0 -241 37 -335q36 -92 103 -160q68 -68 156 -106q92 -38 194 -39h42q25 -1 46 1q54 2 97 10q113 20 171 82v-755h134v1664q-60 52 -134 88q-160 79 -356 79q-102 0 -194 -38q-88 -36 -156 -106q-140 -144 -140 -385zM284 907q100 105 256 105q86 0 165 -18 q107 -24 191 -81v-661q-62 -84 -168 -118q-74 -22 -188 -22q-156 0 -256 104q-101 103 -101 343q0 242 101 348z" />
<glyph unicode="r" horiz-adv-x="822" d="M100 -1h134v967q107 46 242 47h6q137 0 266 -45v141q-127 38 -257 38q-35 0 -71 -3q-162 -12 -286 -79q-18 -9 -34 -19v-1047z" />
<glyph unicode="s" horiz-adv-x="964" d="M100 114v1l83 105h1l1 -1q2 -1 5 -3q8 -6 19 -13q33 -21 69 -38q116 -55 227 -55q105 0 177 49t73 120q0 91 -78 147q-57 40 -215 94l-31 10l-31 12q-36 12 -63 24q-69 29 -114 61q-115 83 -115 220q0 109 74 191q97 108 289 108q124 0 245 -43q39 -15 73 -31 q11 -6 21 -10q4 -2 6 -4h1l1 -1l-69 -115h-1v1l-4 2l-16 8q-28 13 -59 24q-99 35 -198 35q-139 0 -196 -72q-20 -24 -28 -56l-4 -22q-1 -4 -1 -9v-6q0 -73 70 -119q50 -34 194 -82l32 -10l33 -12q39 -14 67 -26q74 -32 124 -68q127 -93 127 -249q0 -133 -110 -219t-274 -86 q-142 0 -285 68q-46 22 -86 47q-13 9 -24 17q-4 2 -6 4q-2 1 -3 2h-1z" />
<glyph unicode="t" horiz-adv-x="627" d="M100 314q0 -162 76 -250q76 -86 218 -86q76 0 133 31v137q-57 -34 -133 -35h-4q-63 0 -105 33q-51 40 -51 114v723h293v133h-293v282h-134v-1082z" />
<glyph unicode="u" d="M100 422q0 -184 92 -298q118 -148 375 -148q166 0 309 66q72 32 110 66v1004h-134v-925l-27 -13q-16 -8 -29 -14q-34 -16 -64 -26q-75 -25 -159 -25h-6q-167 0 -245 65q-88 74 -88 248v690h-134v-690z" />
<glyph unicode="v" d="M50 1112l415 -1112h157l414 1112h-144l-349 -949l-349 949h-144z" />
<glyph unicode="w" horiz-adv-x="1556" d="M50 1112l309 -1112h174l245 898l244 -898h175l309 1112h-142l-259 -931l-249 928l1 3l-157 -3l-250 -928l-258 931h-142z" />
<glyph unicode="x" horiz-adv-x="1029" d="M50 0h161l303 502l304 -502h161l-356 589l349 523h-166l-292 -438l-292 438h-166l350 -523z" />
<glyph unicode="y" horiz-adv-x="1156" d="M50 1112l455 -1126l-279 -676h145l735 1802h-144l-384 -947l-384 947h-144z" />
<glyph unicode="z" horiz-adv-x="1063" d="M100 0h863v134h-707l707 826v152h-863v-134h700l-700 -817v-161z" />
<glyph unicode="{" horiz-adv-x="744" d="M75 473v112l1 13q58 2 72 6q40 14 70 48q80 92 79 340v57q-1 311 121 443q45 50 107 74q47 18 103 17h16v-125h-16q-118 0 -168 -140q-38 -101 -38 -269v-57q0 -320 -142 -456q142 -136 142 -456v-59q0 -169 38 -269q52 -140 168 -140h16v-125h-16q-56 -1 -103 17 q-63 22 -107 74q-122 132 -121 443v59q1 248 -79 340q-30 34 -70 46q-14 5 -73 7z" />
<glyph unicode="|" horiz-adv-x="326" d="M100 -754v2742h126v-2742h-126z" />
<glyph unicode="}" horiz-adv-x="744" d="M100 -388h16q118 0 169 140q37 101 37 269v59q0 320 142 456q-142 136 -142 456v57q0 169 -37 269q-52 140 -169 140h-16v125h16q56 1 104 -17q62 -22 106 -74q122 -132 122 -443v-57q0 -248 79 -340q29 -34 69 -48q14 -4 72 -6l2 -13v-112q-58 -2 -73 -7 q-40 -12 -70 -46q-79 -92 -79 -340v-59q0 -311 -122 -443q-44 -50 -106 -74q-48 -18 -104 -17h-16v125z" />
<glyph unicode="~" horiz-adv-x="1173" d="M100 710q80 178 204 216q74 22 161 -10q34 -13 131 -71q96 -57 132 -73q62 -28 104 -18q39 11 78 58q28 34 46 69l117 -62q-85 -157 -207 -191q-30 -8 -61 -9q-62 0 -132 32q-162 93 -180 103q-31 18 -53 28q-62 28 -98 16q-66 -20 -122 -143z" />
<glyph unicode="&#xa1;" horiz-adv-x="342" d="M100 1419v142h142v-142h-142zM105 0v1180h132v-1180h-132z" />
<glyph unicode="&#xa2;" horiz-adv-x="871" d="M50 696q0 -188 111 -324q111 -134 285 -166v-206h133v197q123 1 193 19v138q-74 -24 -232 -24q-156 0 -256 104t-100 262v170q0 159 100 262t256 103q150 -1 232 -25v134q-84 22 -193 24v196h-133v-204q-174 -32 -285 -168t-111 -322v-170z" />
<glyph unicode="&#xa3;" horiz-adv-x="1009" d="M75 678h97v-114q0 -332 -64 -570h801v134h-628q25 104 25 436v114h346v120h-346v274q0 242 110 330q38 30 88 41q18 3 40 5q8 0 16 1h14q130 -1 196 -89l92 102q-18 22 -41 40q-98 82 -247 81q-67 1 -126 -17q-76 -22 -131 -72q-145 -128 -145 -422v-274h-97v-120z" />
<glyph unicode="&#xa4;" horiz-adv-x="1590" d="M100 -8l90 -90l239 240q152 -128 366 -128q215 0 367 128l238 -240l90 90l-242 242q88 126 88 284v114q0 158 -88 284l242 242l-90 90l-238 -239q-152 127 -367 127q-214 0 -366 -127l-239 239l-90 -90l242 -242q-88 -126 -88 -284v-114q0 -158 88 -284zM388 518v114 q0 102 51 187q33 54 85 95q112 88 271 88q160 0 272 -88q53 -40 85 -95q50 -85 50 -187v-114q0 -102 -50 -187q-33 -54 -85 -95q-112 -88 -272 -88q-159 0 -271 88q-52 41 -85 95q-51 85 -51 187z" />
<glyph unicode="&#xa5;" horiz-adv-x="1009" d="M75 1560h145l284 -734l284 734h146l-372 -924h259v-112h-251v-134h251v-112h-251v-278h-132v278h-250v112h250v134h-250v112h259z" />
<glyph unicode="&#xa6;" horiz-adv-x="326" d="M100 419h126v-1155h-126v1155zM100 834v1154h126v-1154h-126z" />
<glyph unicode="&#xa7;" horiz-adv-x="1069" d="M75 -58l93 96q64 -62 166 -99q71 -26 153 -23q92 4 155 48q96 66 96 216q0 118 -68 178q-42 38 -364 167q-62 32 -103 70q-109 99 -117 275q-4 70 22 136q24 66 72 116q70 74 162 97q-52 39 -87 105q-42 78 -46 184q-3 70 21 136t73 116q46 48 110 78q84 38 188 38 q92 0 184 -26t177 -80l-71 -114q-137 86 -290 86q-130 0 -201 -74q-29 -30 -44 -71q-15 -39 -13 -83q7 -120 75 -184q42 -40 168 -89q212 -84 247 -105q40 -20 81 -71q80 -100 80 -246q0 -184 -108 -291q-54 -53 -120 -77q106 -93 106 -271q0 -122 -50 -212 q-38 -68 -103 -114q-105 -72 -251 -72q-98 0 -182 32q-54 20 -100 46q-62 34 -111 82zM220 876q6 -120 75 -184q43 -40 161 -86q120 -46 134 -52q22 0 43 2q28 4 53 10q64 16 106 58q68 66 68 194q0 118 -68 178q-42 38 -168 86l-7 2q-71 20 -139 20q-130 0 -200 -74 q-28 -30 -44 -71q-16 -39 -14 -83z" />
<glyph unicode="&#xa8;" horiz-adv-x="804" d="M100 1303v142h142v-142h-142zM562 1303v142h142v-142h-142z" />
<glyph unicode="&#xa9;" horiz-adv-x="1481" d="M75 994q-1 136 49 257q52 121 148 217q94 94 212 143q118 48 255 48t259 -49q121 -50 216 -144q92 -92 142 -214t50 -258t-48 -255q-50 -120 -144 -211q-98 -98 -220 -149q-126 -51 -255 -51q-131 0 -251 50q-120 51 -217 148q-97 96 -147 214q-48 122 -49 254zM180 996 q0 -110 42 -214q43 -102 123 -182q165 -166 397 -166q109 0 213 44q101 42 185 124q80 80 122 180q40 100 40 214q0 112 -42 213t-122 183q-164 164 -396 165q-116 -1 -217 -41t-179 -121q-80 -82 -123 -185q-43 -102 -43 -214zM456 972v80q0 148 82 240q39 44 91 66 q54 24 117 24q64 0 118 -24q52 -24 90 -66l-70 -70q-52 62 -138 61q-87 -1 -139 -65q-51 -63 -51 -166v-80q0 -104 51 -166q52 -64 139 -64q86 0 128 52l80 -61q-38 -44 -90 -67q-54 -24 -118 -24t-117 24q-51 24 -91 67q-82 91 -82 239z" />
<glyph unicode="&#xaa;" horiz-adv-x="737" d="M50 1079.5q0 -93.5 85 -156.5t211 -63q112 0 204 36q42 18 88 48v346q0 110 -60 179q-80 91 -257 91q-99 0 -179 -14v-82q78 16 179 16q190 0 222 -133h-123q-26 1 -50 1h-24q-126 0 -211 -64q-41 -30 -63 -70q-22 -41 -22 -134.5zM138 1104q0 82 59 122t149 40h77h127 v-270l-18 -11q-10 -6 -16 -10q-20 -11 -40 -17q-48 -18 -130 -18q-90 0 -149 40t-59 124z" />
<glyph unicode="&#xab;" horiz-adv-x="1082" d="M100 786l378 648h170l-378 -648l378 -650h-170zM434 786l379 648h169l-378 -648l378 -650h-169z" />
<glyph unicode="&#xac;" horiz-adv-x="1258" d="M100 1116v130h1058v-376h-132v246h-926z" />
<glyph unicode="&#xad;" horiz-adv-x="752" d="M100 504v133h552v-133h-552z" />
<glyph unicode="&#xae;" horiz-adv-x="1480" d="M75 994q-1 136 49 256q52 122 148 218q94 94 212 142t255 48q139 0 259 -48q120 -49 216 -145q92 -94 142 -214q50 -121 50 -257t-48 -256q-50 -120 -144 -210q-98 -98 -220 -150q-126 -50 -255 -50q-132 0 -251 50q-120 52 -217 148t-147 214q-48 122 -49 254zM180 995 q0 -111 42 -213q44 -102 123 -182q165 -166 397 -166q108 0 213 44q101 42 185 123q82 81 122 181q40 99 40 213q0 111 -42 213q-42 101 -122 184q-164 164 -396 164q-116 0 -217 -40t-179 -122q-80 -82 -123 -184q-43 -103 -43 -215zM536 672v677q77 13 208 13 q104 0 168 -50q74 -60 74 -175q0 -67 -32 -119q-30 -50 -102 -84l147 -262h-94l-135 246q-61 0 -99 9q-18 3 -51 21v-276h-84zM622 1018q50 -26 136 -26q72 0 110 48q32 38 33 97q0 63 -37 101q-39 40 -113 40q-96 0 -129 -16v-244z" />
<glyph unicode="&#xaf;" horiz-adv-x="752" d="M100 1344v134h552v-134h-552z" />
<glyph unicode="&#xb0;" horiz-adv-x="571" d="M100 1532q0 100 52 144q25 20 59 32q35 11 75 11t74 -11q34 -12 58 -32q52 -44 52 -145t-52 -145q-25 -20 -58 -32q-34 -10 -74 -10t-75 10q-35 11 -59 32q-52 44 -52 146zM202 1531q0 -51 22 -67q24 -18 62 -18q40 0 62 18q22 17 22 67.5t-22 68.5t-62 17q-38 1 -62 -17 q-22 -18 -22 -69z" />
<glyph unicode="&#xb1;" horiz-adv-x="847" d="M100 274v134h647v-134h-647zM100 778v133h256v257h134v-257h257v-133h-257v-257h-134v257h-256z" />
<glyph unicode="&#xb2;" horiz-adv-x="641" d="M100 1336h100v8q0 59 30 93q34 37 90 37q74 0 104 -55q10 -17 14 -39l2 -8v-6v-8v-4q0 -52 -20 -90q-14 -26 -50 -74l-3 -2q0 -1 -35 -40q-2 -2 -7 -8l-5 -5l-4 -5l-4 -5l-4 -5l-10 -10q-10 -12 -20 -25q-4 -5 -10 -11l-4 -4l-4 -5q-48 -55 -82 -95q-28 -32 -34 -40 l-12 -15v-105h391v109h-249q32 41 46 55q2 2 4 6l3 4l3 3q8 9 14 17l14 16l14 14q16 18 30 35q12 13 22 25q4 4 8 10l2 4l3 2q6 6 6 7l2 3l9 10l9 12q9 11 17 22q18 24 30 51q32 63 32 139q0 38 -13 76q-14 41 -39 74q-60 78 -170 78q-96 0 -158 -65t-62 -173v-8z" />
<glyph unicode="&#xb3;" horiz-adv-x="664" d="M100 1031q0 -103 66 -167q64 -62 167 -62q63 0 114 24q53 25 81 69q36 56 36 122q0 83 -46 136q-16 17 -37 33q-5 4 -27 20q22 23 27 23q11 8 24 22q42 46 42 127q0 65 -35 118q-28 42 -76 66q-48 23 -108 23q-97 0 -159 -60q-63 -61 -63 -158v-5h101v5q-1 64 49 94 q17 10 40 14q8 2 18 3h14h20q14 -2 28 -6q36 -10 52 -36q18 -26 18 -60q0 -20 -6 -40q-8 -24 -26 -42q-43 -48 -118 -48v-86q93 0 138 -52q17 -20 24 -46q6 -18 6 -43q0 -35 -20 -63q-18 -28 -58 -40q-14 -4 -30 -7l-12 -1h-11h-7h-8q-11 0 -19 4q-26 4 -43 14 q-56 32 -56 105v7h-100v-7z" />
<glyph unicode="&#xb4;" horiz-adv-x="509" d="M100 1303h140l170 379h-140z" />
<glyph unicode="&#xb5;" d="M100 -528h134v606q118 -102 333 -102q166 0 309 66q72 32 110 66v1004h-134v-925l-27 -13q-16 -8 -29 -14q-34 -16 -64 -26q-78 -26 -165 -25q-167 0 -245 65q-78 66 -88 212v342v384h-134v-1640z" />
<glyph unicode="&#xb6;" horiz-adv-x="1057" d="M104 1174q-4 196 114 312q154 154 480 154h259v-1749h-125v1635h-222v-1635h-125v903h-45q-106 0 -208 92q-124 111 -128 288z" />
<glyph unicode="&#xb7;" horiz-adv-x="333" d="M100 708h134v152h-134v-152z" />
<glyph unicode="&#xb8;" horiz-adv-x="599" d="M106 -520l34 108q52 -23 136 -23q38 -1 64 15q36 22 36 64q0 46 -36 68q-12 8 -30 14q-6 2 -14 4l-4 1l-2 1q-2 1 -5 1q-52 13 -113 23l91 215h122l-59 -135q47 -8 87 -38q36 -26 56 -62q25 -44 25 -102q0 -46 -24 -85t-68 -64q-55 -31 -135 -31q-46 0 -96 10 q-20 4 -39 9q-16 4 -26 7z" />
<glyph unicode="&#xb9;" horiz-adv-x="200" d="M105 1325h119v-652h100v760h-219v-108z" />
<glyph unicode="&#xba;" horiz-adv-x="815" d="M50 1210q0 -114 27 -170q26 -54 75 -96q49 -41 113 -63q67 -23 143 -23t142 23q64 21 113 63q48 42 75 96q27 56 27 168q0 114 -27 170q-26 54 -75 96q-102 86 -255.5 86t-255.5 -86q-48 -42 -75 -96q-27 -56 -27 -168zM138 1209q0 145 76 207q76 63 193.5 63.5 t193.5 -63.5q76 -62 76 -207t-76 -207q-76 -63 -193.5 -63t-193.5 63q-76 62 -76 207z" />
<glyph unicode="&#xbb;" horiz-adv-x="1082" d="M100 136l378 650l-378 648h170l378 -648l-378 -650h-170zM434 136l379 650l-379 648h170l378 -648l-378 -650h-170z" />
<glyph unicode="&#xbc;" horiz-adv-x="1222" d="M100 1306v108h220v-760h-102v652h-118zM118 0l859 1418h119l-860 -1418h-118zM667 174v91l245 501h112l-238 -484h190v183h100v-183h46v-108h-46v-168h-100v168h-309z" />
<glyph unicode="&#xbd;" horiz-adv-x="1318" d="M100 1305v108h220v-760h-102v652h-118zM118 0l859 1418h119l-860 -1418h-118zM777 526v7q1 105 63 173q62 64 158 65q109 1 169 -77q26 -32 39 -74q12 -38 12 -76q0 -76 -31 -140q-13 -24 -31 -50q-7 -10 -16 -22l-9 -12l-9 -11l-2 -3q-4 -4 -72 -82l-13 -15l-13 -16 q-16 -19 -26 -29q-16 -18 -46 -56h250v-108h-390v104l11 16q11 14 116 134q17 18 39 45l8 10l5 5l4 5q10 13 16 19q32 38 35 40l2 2q38 48 52 73q20 40 20 91v4q0 4 -1 7q0 7 -2 15q-3 22 -13 38q-30 54 -104 55q-56 -1 -90 -37q-30 -34 -30 -93v-7h-101z" />
<glyph unicode="&#xbe;" horiz-adv-x="1399" d="M100 890v6h100v-6q0 -72 56 -104q18 -10 43 -16q9 -2 19 -2q7 0 15 -1q11 0 23 1q16 2 30 7q40 13 58 41q20 28 20 62q0 24 -6 44q-7 26 -24 45q-46 52 -138 52v85q76 0 118 48q17 18 26 43q6 20 6 40q0 34 -18 60q-16 23 -52 35q-13 4 -28 6q-10 2 -20 2q-7 0 -14 -1 q-10 0 -18 -3q-22 -4 -40 -14q-50 -29 -49 -94v-5h-101v5q0 97 63 158q61 60 159 60q60 0 108 -23q48 -24 76 -66q35 -53 35 -118q0 -80 -42 -127q-12 -14 -24 -22q-4 0 -27 -23q22 -17 27 -19q21 -14 37 -34q46 -54 46 -136q0 -66 -36 -122q-30 -44 -81 -70 q-51 -24 -114 -24q-102 0 -167 64q-66 64 -66 166zM230 1l860 1418h118l-860 -1418h-118zM844 170v90l245 501h111l-237 -483h190v182h101v-182h46v-108h-46v-169h-101v169h-309z" />
<glyph unicode="&#xbf;" horiz-adv-x="937" d="M75 346q1 100 49 194q19 37 48 78q100 129 120 158q52 79 68 143t17 182v79h137v-79q0 -140 -22 -224q-24 -84 -160 -279q-62 -78 -83 -118q-37 -66 -37 -134q0 -136 100 -192q34 -20 114 -32q12 -2 26 -2q94 0 164 72q69 71 86 173l136 -23q-26 -157 -133 -261 q-107 -103 -253 -103q-170 0 -274 102t-103 266zM376 1419v142h142v-142h-142z" />
<glyph unicode="&#xc0;" horiz-adv-x="1177" d="M62 0l450 1560h153l449 -1560h-139l-116 404h-541l-116 -404h-140zM310 2130l170 -378h140l-170 378h-140zM356 538h464l-232 807z" />
<glyph unicode="&#xc1;" horiz-adv-x="1177" d="M62 0l450 1560h153l449 -1560h-139l-116 404h-541l-116 -404h-140zM356 538h464l-232 807zM568 1752h140l169 378h-140z" />
<glyph unicode="&#xc2;" horiz-adv-x="1177" d="M62 0l450 1560h153l449 -1560h-139l-116 404h-541l-116 -404h-140zM350 1830l239 212l239 -212l-78 -88l-161 144l-162 -144zM356 538h464l-232 807z" />
<glyph unicode="&#xc3;" horiz-adv-x="1177" d="M62 0l450 1560h153l449 -1560h-139l-116 404h-541l-116 -404h-140zM282 1817q47 113 126 139q48 16 104 -6q23 -8 50 -24q12 -7 74.5 -41t107.5 -34q46 1 66 55l86 -54q-48 -98 -128 -122q-20 -6 -41 -6q-39 0 -85 22q-18 9 -73 43.5t-68 40.5q-46 24 -82.5 -5.5 t-46.5 -55.5zM356 538h464l-232 807z" />
<glyph unicode="&#xc4;" horiz-adv-x="1177" d="M62 0l450 1560h153l449 -1560h-139l-116 404h-541l-116 -404h-140zM286 1752v142h142v-142h-142zM356 538h464l-232 807zM748 1752v142h142v-142h-142z" />
<glyph unicode="&#xc5;" horiz-adv-x="1177" d="M62 0l450 1556q-18 9 -33 23q-22 20 -35 50t-13 67q0 36 13 66q12 30 35 51q22 21 50 31q59 24 119 0q28 -10 50 -31t36 -51q12 -30 12 -66q0 -38 -12 -67q-14 -30 -36 -50q-14 -14 -32 -23l448 -1556h-139l-116 404h-541l-116 -404h-140zM356 538h464l-232 807z M540 1696q0 -14 4 -24q4 -8 10 -14q14 -14 35 -14t35 14q6 6 9 14q5 11 5 24q0 14 -5 24q-3 8 -9 14q-14 14 -35 14t-35 -14q-6 -6 -10 -14q-4 -10 -4 -24z" />
<glyph unicode="&#xc6;" horiz-adv-x="1549" d="M75 0l439 1561h912v-136h-506v-577h462v-135h-462v-578h529v-135h-661v380h-466l-110 -380h-137zM362 514h426v911h-166z" />
<glyph unicode="&#xc7;" horiz-adv-x="1047" d="M75 708q0 374 44 494q43 116 123 202t189 132q112 48 242 47q135 0 269 -34q4 1 6 -1l-1 -139q-1 -1 -5 1q-130 36 -269 36q-209 0 -335 -138q-126 -137 -126 -528t126 -528q126 -138 335 -138q105 0 213 22l56 14l3 2v-140l-3 -1l-66 -15q-106 -20 -199 -20l-39 -87 q48 -9 88 -38q36 -26 56 -61q26 -44 26 -103q0 -47 -24 -85q-24 -40 -69 -64q-55 -32 -135 -31q-46 0 -96 10q-20 3 -39 9q-15 4 -25 8l34 108q52 -24 136 -24q37 0 64 16q36 21 36 63q0 46 -37 69q-13 8 -31 14l-12 4h-4l-3 1q-3 1 -5 1q-52 14 -112 24l74 176 q-68 12 -129 38q-108 46 -189 131q-167 179 -167 553z" />
<glyph unicode="&#xc8;" horiz-adv-x="919" d="M100 0v1560h694v-134h-560v-576h540v-134h-540v-582h585v-134h-719zM232 2130l170 -378h140l-170 378h-140z" />
<glyph unicode="&#xc9;" horiz-adv-x="919" d="M100 0v1560h694v-134h-560v-576h540v-134h-540v-582h585v-134h-719zM383 1752h140l169 378h-140z" />
<glyph unicode="&#xca;" horiz-adv-x="919" d="M100 0v1560h694v-134h-560v-576h540v-134h-540v-582h585v-134h-719zM256 1830l239 212l239 -212l-78 -88l-161 144l-162 -144z" />
<glyph unicode="&#xcb;" horiz-adv-x="919" d="M100 0v1560h694v-134h-560v-576h540v-134h-540v-582h585v-134h-719zM158 1752v142h142v-142h-142zM620 1752v142h142v-142h-142z" />
<glyph unicode="&#xcc;" horiz-adv-x="333" d="M-65 2130l169 -378h140l-169 378h-140zM100 0h134v1560h-134v-1560z" />
<glyph unicode="&#xcd;" horiz-adv-x="333" d="M98 1752h140l170 378h-140zM100 0h134v1560h-134v-1560z" />
<glyph unicode="&#xce;" horiz-adv-x="333" d="M-66 1830l240 212l238 -212l-78 -88l-161 144l-162 -144zM100 0h134v1560h-134v-1560z" />
<glyph unicode="&#xcf;" horiz-adv-x="333" d="M-135 1752v142h142v-142h-142zM100 0h134v1560h-134v-1560zM327 1752v142h142v-142h-142z" />
<glyph unicode="&#xd0;" horiz-adv-x="1196" d="M2 714h98v-662q172 -76 422 -76q132 0 242 46t190 132t122 202q44 120 45 497q1 374 -167 553q-80 86 -190 132q-112 46 -242 46q-251 0 -422 -60v-678h-98v-132zM237 151v563h325v132h-325v571q113 30 285 30q210 0 336 -138q126 -137 126 -527q0 -394 -126 -531 q-126 -138 -336 -138q-172 0 -285 38z" />
<glyph unicode="&#xd1;" horiz-adv-x="1183" d="M100 0v1560h130l721 -1284v1285h132v-1561h-132l-719 1286v-1286h-132zM284 1817q47 113 127 139q47 16 103 -6q23 -8 51 -24q12 -7 74.5 -41t107.5 -34q45 1 67 55l85 -54q-50 -98 -128 -122q-20 -6 -41 -6q-40 0 -86 22q-18 9 -72.5 43.5t-67.5 40.5q-46 24 -82 -5.5 t-47 -55.5z" />
<glyph unicode="&#xd2;" horiz-adv-x="1275" d="M75 780q0 442 157 622q76 88 178 134q106 48 228 47q124 1 228 -47q102 -46 178 -134q157 -181 156.5 -622.5t-156.5 -621.5q-76 -88 -178 -134q-104 -48 -228 -47q-122 -1 -228 47q-102 46 -178 134q-157 180 -157 622zM208.5 780q-0.5 -390 117.5 -530t312 -140 q196 0 312 140q117 140 117 530t-117 530q-116 140 -312 140q-194 0 -312 -140q-117 -140 -117.5 -530zM406 2130l170 -378h140l-170 378h-140z" />
<glyph unicode="&#xd3;" horiz-adv-x="1275" d="M75 780q0 442 157 622q76 88 178 134q106 48 228 47q124 1 228 -47q102 -46 178 -134q157 -181 156.5 -622.5t-156.5 -621.5q-76 -88 -178 -134q-104 -48 -228 -47q-122 -1 -228 47q-102 46 -178 134q-157 180 -157 622zM208.5 780q-0.5 -390 117.5 -530t312 -140 q196 0 312 140q117 140 117 530t-117 530q-116 140 -312 140q-194 0 -312 -140q-117 -140 -117.5 -530zM560 1752h140l169 378h-140z" />
<glyph unicode="&#xd4;" horiz-adv-x="1275" d="M75 780q0 442 157 622q76 88 178 134q106 48 228 47q124 1 228 -47q102 -46 178 -134q157 -181 156.5 -622.5t-156.5 -621.5q-76 -88 -178 -134q-104 -48 -228 -47q-122 -1 -228 47q-102 46 -178 134q-157 180 -157 622zM208.5 780q-0.5 -390 117.5 -530t312 -140 q196 0 312 140q117 140 117 530t-117 530q-116 140 -312 140q-194 0 -312 -140q-117 -140 -117.5 -530zM399 1830l239 212l238 -212l-77 -88l-161 144l-162 -144z" />
<glyph unicode="&#xd5;" horiz-adv-x="1275" d="M75 780q0 442 157 622q76 88 178 134q106 48 228 47q124 1 228 -47q102 -46 178 -134q157 -181 156.5 -622.5t-156.5 -621.5q-76 -88 -178 -134q-104 -48 -228 -47q-122 -1 -228 47q-102 46 -178 134q-157 180 -157 622zM208.5 780q-0.5 -390 117.5 -530t312 -140 q196 0 312 140q117 140 117 530t-117 530q-116 140 -312 140q-194 0 -312 -140q-117 -140 -117.5 -530zM330 1817q47 113 127 139q47 16 103 -6q23 -8 51 -24q12 -7 74.5 -41t108.5 -34q46 1 66 55l85 -54q-50 -98 -128 -122q-20 -6 -41 -6q-40 0 -86 22q-18 9 -72.5 43.5 t-67.5 40.5q-46 24 -82 -5.5t-47 -55.5z" />
<glyph unicode="&#xd6;" horiz-adv-x="1275" d="M75 780q0 442 157 622q76 88 178 134q106 48 228 47q124 1 228 -47q102 -46 178 -134q157 -181 156.5 -622.5t-156.5 -621.5q-76 -88 -178 -134q-104 -48 -228 -47q-122 -1 -228 47q-102 46 -178 134q-157 180 -157 622zM208.5 780q-0.5 -390 117.5 -530t312 -140 q196 0 312 140q117 140 117 530t-117 530q-116 140 -312 140q-194 0 -312 -140q-117 -140 -117.5 -530zM336 1752v142h142v-142h-142zM798 1752v142h142v-142h-142z" />
<glyph unicode="&#xd7;" horiz-adv-x="823" d="M100 354l217 216l-217 217l95 95l217 -217l216 217l95 -95l-217 -217l217 -216l-95 -95l-216 217l-217 -217z" />
<glyph unicode="&#xd8;" horiz-adv-x="1275" d="M75 780q0 442 157 622q76 88 178 134q106 48 228 47q124 1 228 -47q2 0 2 -2l48 122h139l-76 -191q35 -29 65 -63q157 -181 156.5 -622.5t-156.5 -621.5q-76 -88 -178 -134q-104 -48 -228 -47q-122 -1 -228 47l-50 -124h-140l78 194q-35 29 -66 64q-157 180 -157 622z M208.5 780q-0.5 -390 117.5 -530q12 -14 23 -26l470 1188q-79 38 -181 38q-194 0 -312 -140q-117 -140 -117.5 -530zM458 148q80 -38 180 -38q196 0 312 140q117 140 117 530t-117 530q-10 12 -22 24z" />
<glyph unicode="&#xd9;" horiz-adv-x="1150" d="M100 422q0 -446 531 -446q166 0 309 66q72 32 110 66v1454h-134v-1375q-108 -78 -285 -78q-397 -1 -397 313v1140h-134v-1140zM100 422q0 -446 531 -446q166 0 309 66q72 32 110 66v1454h-134v-1375q-108 -78 -285 -78q-397 -1 -397 313v1140h-134v-1140zM368 2130 l170 -379h140l-170 379h-140z" />
<glyph unicode="&#xda;" horiz-adv-x="1150" d="M100 422q0 -446 531 -446q166 0 309 66q72 32 110 66v1454h-134v-1375q-108 -78 -285 -78q-397 -1 -397 313v1140h-134v-1140zM100 422q0 -446 531 -446q166 0 309 66q72 32 110 66v1454h-134v-1375q-108 -78 -285 -78q-397 -1 -397 313v1140h-134v-1140zM472 1751h140 l170 379h-140z" />
<glyph unicode="&#xdb;" horiz-adv-x="1150" d="M100 422q0 -446 531 -446q166 0 309 66q72 32 110 66v1454h-134v-1375q-108 -78 -285 -78q-397 -1 -397 313v1140h-134v-1140zM100 422q0 -446 531 -446q166 0 309 66q72 32 110 66v1454h-134v-1375q-108 -78 -285 -78q-397 -1 -397 313v1140h-134v-1140zM336 1830 l240 212l238 -212l-78 -88l-161 143l-162 -143z" />
<glyph unicode="&#xdc;" horiz-adv-x="1150" d="M100 422q0 -446 531 -446q166 0 309 66q72 32 110 66v1454h-134v-1375q-108 -78 -285 -78q-397 -1 -397 313v1140h-134v-1140zM100 422q0 -446 531 -446q166 0 309 66q72 32 110 66v1454h-134v-1375q-108 -78 -285 -78q-397 -1 -397 313v1140h-134v-1140zM273 1751v142 h142v-142h-142zM735 1751v142h142v-142h-142z" />
<glyph unicode="&#xdd;" horiz-adv-x="1071" d="M62 1560h145l329 -742l328 742h144l-406 -918v-642h-132v642zM432 1752h140l170 378h-140z" />
<glyph unicode="&#xde;" horiz-adv-x="1204" d="M100 0v1560h134v-275q96 36 219 36.5t248 -36.5t221.5 -106t151.5 -165.5t55 -243.5t-55 -243.5t-151.5 -166t-205 -106t-231 -36.5t-252.5 35v-253h-134zM234 378q140 -37 247 -37.5t194 29.5t163 85t116.5 127t40.5 188t-40.5 188t-116.5 127t-179 85t-211 30t-214 -40 v-782z" />
<glyph unicode="&#xdf;" horiz-adv-x="1098" d="M100 -3h129v1205q0 152 107 236q88 68 208 68q30 0 61 -4q41 -4 75 -16q92 -30 133 -99q49 -82 43 -182t-68 -178q-50 -62 -151 -95q-83 -27 -169 -27v-140q120 0 214 -37q86 -34 136 -96q67 -84 75 -192q9 -110 -47 -198q-38 -62 -108 -96t-161 -34q-57 0 -109 17v-142 q54 -12 109 -12q123 0 222 50q98 49 155 141q69 112 69 246q-1 208 -121 326q-44 44 -100 71q-42 19 -83 29q37 10 75 32q50 28 88 70q104 112 104 292q0 64 -20 128q-24 76 -72 136q-120 148 -350 148q-190 0 -316 -124q-128 -126 -128 -318v-1205z" />
<glyph unicode="&#xe0;" horiz-adv-x="1040" d="M50 343.5q0 -155.5 128 -260.5q130 -106 322 -106q170 0 306 62q62 28 134 78v579q0 184 -90 297q-122 151 -390 151q-150 0 -306 -32v-138q152 36 306 36q288 0 337 -220h-187h-74h-36q-192 0 -322 -106q-61 -50 -94 -117q-34 -68 -34 -223.5zM183.5 383 q0.5 139 89.5 206q91 67 227 67h115q117 0 191 -1v-451l-25 -18q-15 -10 -25 -16q-30 -18 -60 -30q-74 -28 -196 -28q-137 0 -227 66t-89.5 205zM328 1682l170 -379h140l-170 379h-140z" />
<glyph unicode="&#xe1;" horiz-adv-x="1040" d="M50 343.5q0 -155.5 128 -260.5q130 -106 322 -106q170 0 306 62q62 28 134 78v579q0 184 -90 297q-122 151 -390 151q-150 0 -306 -32v-138q152 36 306 36q288 0 337 -220h-187h-74h-36q-192 0 -322 -106q-61 -50 -94 -117q-34 -68 -34 -223.5zM183.5 383 q0.5 139 89.5 206q91 67 227 67h115q117 0 191 -1v-451l-25 -18q-15 -10 -25 -16q-30 -18 -60 -30q-74 -28 -196 -28q-137 0 -227 66t-89.5 205zM460 1303h140l170 379h-140z" />
<glyph unicode="&#xe2;" horiz-adv-x="1040" d="M50 343.5q0 -155.5 128 -260.5q130 -106 322 -106q170 0 306 62q62 28 134 78v579q0 184 -90 297q-122 151 -390 151q-150 0 -306 -32v-138q152 36 306 36q288 0 337 -220h-187h-74h-36q-192 0 -322 -106q-61 -50 -94 -117q-34 -68 -34 -223.5zM183.5 383 q0.5 139 89.5 206q91 67 227 67h115q117 0 191 -1v-451l-25 -18q-15 -10 -25 -16q-30 -18 -60 -30q-74 -28 -196 -28q-137 0 -227 66t-89.5 205zM306 1382l239 212l238 -212l-77 -88l-162 143l-162 -143z" />
<glyph unicode="&#xe3;" horiz-adv-x="1040" d="M50 343.5q0 -155.5 128 -260.5q130 -106 322 -106q170 0 306 62q62 28 134 78v579q0 184 -90 297q-122 151 -390 151q-150 0 -306 -32v-138q152 36 306 36q288 0 337 -220h-187h-74h-36q-192 0 -322 -106q-61 -50 -94 -117q-34 -68 -34 -223.5zM183.5 383 q0.5 139 89.5 206q91 67 227 67h115q117 0 191 -1v-451l-25 -18q-15 -10 -25 -16q-30 -18 -60 -30q-74 -28 -196 -28q-137 0 -227 66t-89.5 205zM232 1368q46 112 126 139q48 16 104 -5q22 -8 50 -24q12 -7 75 -41.5t108 -34.5t66 55l85 -53q-50 -98 -128 -122 q-20 -6 -40 -6q-40 0 -86 21q-18 9 -73 43.5t-67 41.5q-46 24 -82 -6t-48 -56z" />
<glyph unicode="&#xe4;" horiz-adv-x="1040" d="M50 343.5q0 -155.5 128 -260.5q130 -106 322 -106q170 0 306 62q62 28 134 78v579q0 184 -90 297q-122 151 -390 151q-150 0 -306 -32v-138q152 36 306 36q288 0 337 -220h-187h-74h-36q-192 0 -322 -106q-61 -50 -94 -117q-34 -68 -34 -223.5zM183.5 383 q0.5 139 89.5 206q91 67 227 67h115q117 0 191 -1v-451l-25 -18q-15 -10 -25 -16q-30 -18 -60 -30q-74 -28 -196 -28q-137 0 -227 66t-89.5 205zM224 1303v142h142v-142h-142zM686 1303v142h142v-142h-142z" />
<glyph unicode="&#xe5;" horiz-adv-x="1040" d="M50 343.5q0 -155.5 128 -260.5q130 -106 322 -106q170 0 306 62q62 28 134 78v579q0 184 -90 297q-122 151 -390 151q-150 0 -306 -32v-138q152 36 306 36q288 0 337 -220h-187h-74h-36q-192 0 -322 -106q-61 -50 -94 -117q-34 -68 -34 -223.5zM183.5 383 q0.5 139 89.5 206q91 67 227 67h115q117 0 191 -1v-451l-25 -18q-15 -10 -25 -16q-30 -18 -60 -30q-74 -28 -196 -28q-137 0 -227 66t-89.5 205zM372 1438q0 36 13 66q12 30 35 51q22 21 50 31q60 24 120 0q28 -10 50 -31t35 -51t13 -66q0 -38 -13 -67q-13 -30 -35 -50 t-50 -31t-60 -11t-60 11t-50 31t-35 50t-13 67zM481 1438q1 -14 5 -24q4 -8 9 -14q14 -14 35 -14q20 0 34 14q6 6 10 14q4 11 4 24q0 14 -4 24q-4 8 -10 14q-14 14 -34 14q-21 0 -35 -14q-5 -6 -9 -14q-4 -10 -5 -24z" />
<glyph unicode="&#xe6;" horiz-adv-x="1809" d="M50 344q0 -154 128 -260q130 -106 322 -106q170 0 307 62q91 41 133 90q67 -72 158 -110q93 -40 199 -40q133 0 211 16q54 10 162 50v147q-130 -51 -165 -60q-77 -20 -208 -20q-155 0 -255 104q-102 104 -102 263v28h819v95q-1 321 -157 449q-108 88 -305 87 q-128 0 -235 -57q-104 -56 -170 -155q-108 219 -432 219q-144 0 -260 -22v-136q114 23 260 23q288 0 337 -221h-187h-110q-192 0 -322 -105q-61 -50 -94 -117q-34 -69 -34 -224zM183.5 384q0.5 140 89.5 206q91 66 227 66h38h77h192l1 -5l-1 -6v-165q1 -120 49 -224v-2 q-72 -76 -142 -106q-82 -36 -214 -36q-136 0 -227 66q-90 66 -89.5 206zM940 642q1 158 102 260q101 104 255 104q150 0 220 -57q100 -81 108 -307h-685z" />
<glyph unicode="&#xe7;" horiz-adv-x="871" d="M50 507.5q0 -243.5 140 -387.5q66 -68 156 -104q39 -16 80 -26l-70 -166q60 -10 112 -23q2 1 5 -1l3 -1l4 -1q7 -2 13 -4q18 -6 30 -14q37 -24 37 -68q0 -42 -36 -64q-27 -16 -64 -15q-84 0 -136 23l-34 -108q10 -3 25 -7q19 -5 39 -9q50 -10 96 -10q80 0 135 31 q45 25 69 64t24 85q0 58 -26 102q-20 36 -56 62q-40 30 -87 38l33 74q154 0 230 20v137q-74 -24 -232 -24q-156 -1 -256 103q-101 103 -100.5 347.5t100.5 347.5t256 103q148 0 232 -24v133q-98 25 -232 25q-104 0 -194 -38q-88 -38 -156 -106q-66 -68 -102 -158 q-38 -93 -38 -336.5z" />
<glyph unicode="&#xe8;" horiz-adv-x="1052" d="M50 505q0 -239 140 -382q66 -67 156 -105t194 -38q133 0 212 16q54 10 162 50v147q-130 -51 -166 -60q-78 -20 -208 -20q-156 0 -256 104t-100 263v28h818v95q0 321 -156 449q-108 88 -306 87q-104 0 -194 -38q-90 -37 -156 -105t-102 -159q-38 -93 -38 -332zM184 642 q2 158 102 260q100 104 254 104q150 0 220 -57q100 -81 108 -307h-684zM345 1682l169 -379h140l-169 379h-140z" />
<glyph unicode="&#xe9;" horiz-adv-x="1052" d="M50 505q0 -239 140 -382q66 -67 156 -105t194 -38q133 0 212 16q54 10 162 50v147q-130 -51 -166 -60q-78 -20 -208 -20q-156 0 -256 104t-100 263v28h818v95q0 321 -156 449q-108 88 -306 87q-104 0 -194 -38q-90 -37 -156 -105t-102 -159q-38 -93 -38 -332zM184 642 q2 158 102 260q100 104 254 104q150 0 220 -57q100 -81 108 -307h-684zM468 1303h140l170 379h-140z" />
<glyph unicode="&#xea;" horiz-adv-x="1052" d="M50 505q0 -239 140 -382q66 -67 156 -105t194 -38q133 0 212 16q54 10 162 50v147q-130 -51 -166 -60q-78 -20 -208 -20q-156 0 -256 104t-100 263v28h818v95q0 321 -156 449q-108 88 -306 87q-104 0 -194 -38q-90 -37 -156 -105t-102 -159q-38 -93 -38 -332zM184 642 q2 158 102 260q100 104 254 104q150 0 220 -57q100 -81 108 -307h-684zM312 1382l240 212l238 -212l-78 -88l-160 143l-162 -143z" />
<glyph unicode="&#xeb;" horiz-adv-x="1052" d="M50 505q0 -239 140 -382q66 -67 156 -105t194 -38q133 0 212 16q54 10 162 50v147q-130 -51 -166 -60q-78 -20 -208 -20q-156 0 -256 104t-100 263v28h818v95q0 321 -156 449q-108 88 -306 87q-104 0 -194 -38q-90 -37 -156 -105t-102 -159q-38 -93 -38 -332zM184 642 q2 158 102 260q100 104 254 104q150 0 220 -57q100 -81 108 -307h-684zM250 1303v142h142v-142h-142zM712 1303v142h142v-142h-142z" />
<glyph unicode="&#xec;" horiz-adv-x="333" d="M-64 1682l169 -379h140l-169 379h-140zM100 -4h134v1116h-134v-1116z" />
<glyph unicode="&#xed;" horiz-adv-x="333" d="M100 -4h134v1116h-134v-1116zM104 1303h140l169 379h-140z" />
<glyph unicode="&#xee;" horiz-adv-x="333" d="M-72 1382l240 212l238 -212l-78 -88l-161 143l-162 -143zM100 -4h134v1116h-134v-1116z" />
<glyph unicode="&#xef;" horiz-adv-x="333" d="M-135 1303v142h142v-142h-142zM100 -4h134v1116h-134v-1116zM327 1303v142h142v-142h-142z" />
<glyph unicode="&#xf0;" horiz-adv-x="1034" d="M50 535q0 -229 36 -307q35 -76 99 -132q136 -122 332 -122q195 0 331 122q64 58 100 132q36 78 36 340t-13 344t-69 228q-98 252 -267 417l122 101l-79 96l-140 -116q-98 70 -204 102l-4 2l-64 -124l6 -2q86 -22 162 -65l-140 -116l79 -96l165 137q224 -196 282 -478 q-130 98 -303 98q-196 0 -332 -122q-64 -58 -99 -132q-36 -78 -36 -307zM186 535q0 261 96 342t235 81t235 -81t96 -342t-96 -342t-235 -81t-235 81t-96 342z" />
<glyph unicode="&#xf1;" d="M100 1h134v934l27 14q16 7 29 13q34 16 64 26q78 26 165 25q167 0 245 -65q88 -74 88 -248v-699h134v699q0 184 -92 299q-119 147 -375 147q-166 0 -309 -66q-72 -32 -110 -66v-1013zM202 1368q47 112 126 139q48 16 104 -5q23 -8 50 -24q12 -7 74.5 -41.5t108 -34.5 t65.5 55l86 -53q-50 -98 -128 -122q-20 -6 -41 -6q-39 0 -85 21q-18 9 -73 43.5t-68 41.5q-46 24 -82.5 -6t-46.5 -56z" />
<glyph unicode="&#xf2;" horiz-adv-x="1183" d="M50 561q0 -187 41 -281q39 -92 113 -160t172 -105q101 -38 216 -38t216 38q98 37 171 105t113 160q41 94 41.5 281t-41.5 281q-40 91 -113 160q-155 144 -387 144t-388 -144q-74 -68 -113 -160q-41 -94 -41 -281zM184 562q0 242 115 346t293 104t292 -104 q116 -104 116 -346t-116 -346q-115 -104 -292.5 -104t-292.5 104q-116 104 -115 346zM361 1682l169 -379h140l-169 379h-140z" />
<glyph unicode="&#xf3;" horiz-adv-x="1183" d="M50 561q0 -187 41 -281q39 -92 113 -160t172 -105q101 -38 216 -38t216 38q98 37 171 105t113 160q41 94 41.5 281t-41.5 281q-40 91 -113 160q-155 144 -387 144t-388 -144q-74 -68 -113 -160q-41 -94 -41 -281zM184 562q0 242 115 346t293 104t292 -104 q116 -104 116 -346t-116 -346q-115 -104 -292.5 -104t-292.5 104q-116 104 -115 346zM547 1303h140l169 379h-140z" />
<glyph unicode="&#xf4;" horiz-adv-x="1183" d="M50 561q0 -187 41 -281q39 -92 113 -160t172 -105q101 -38 216 -38t216 38q98 37 171 105t113 160q41 94 41.5 281t-41.5 281q-40 91 -113 160q-155 144 -387 144t-388 -144q-74 -68 -113 -160q-41 -94 -41 -281zM184 562q0 242 115 346t293 104t292 -104 q116 -104 116 -346t-116 -346q-115 -104 -292.5 -104t-292.5 104q-116 104 -115 346zM353 1382l239 212l238 -212l-77 -88l-161 143l-162 -143z" />
<glyph unicode="&#xf5;" horiz-adv-x="1183" d="M50 561q0 -187 41 -281q39 -92 113 -160t172 -105q101 -38 216 -38t216 38q98 37 171 105t113 160q41 94 41.5 281t-41.5 281q-40 91 -113 160q-155 144 -387 144t-388 -144q-74 -68 -113 -160q-41 -94 -41 -281zM184 562q0 242 115 346t293 104t292 -104 q116 -104 116 -346t-116 -346q-115 -104 -292.5 -104t-292.5 104q-116 104 -115 346zM284 1368q47 112 127 139q47 16 103 -5q23 -8 51 -24q12 -7 74.5 -41.5t108.5 -34.5t66 55l85 -53q-50 -98 -128 -122q-20 -6 -41 -6q-40 0 -86 21q-18 9 -72.5 43.5t-67.5 41.5 q-46 24 -82 -6t-47 -56z" />
<glyph unicode="&#xf6;" horiz-adv-x="1183" d="M50 561q0 -187 41 -281q39 -92 113 -160t172 -105q101 -38 216 -38t216 38q98 37 171 105t113 160q41 94 41.5 281t-41.5 281q-40 91 -113 160q-155 144 -387 144t-388 -144q-74 -68 -113 -160q-41 -94 -41 -281zM184 562q0 242 115 346t293 104t292 -104 q116 -104 116 -346t-116 -346q-115 -104 -292.5 -104t-292.5 104q-116 104 -115 346zM290 1303v142h142v-142h-142zM752 1303v142h142v-142h-142z" />
<glyph unicode="&#xf7;" horiz-adv-x="955" d="M100 524v134h755v-134h-755zM406 223v142h142v-142h-142zM406 818v142h142v-142h-142z" />
<glyph unicode="&#xf8;" horiz-adv-x="1183" d="M50 561q0 -187 41 -281q39 -92 113 -160q46 -43 102 -73l-58 -147h140l38 98q78 -22 166 -22q114 0 216 39q98 37 171 105t113 160q41 94 41.5 281t-41.5 281q-40 91 -113 160q-55 52 -123 86l65 168h-139l-50 -124q-66 14 -140 14q-232 0 -388 -144q-74 -68 -113 -160 q-41 -94 -41 -281zM184 562q0 242 115 346t293 104q48 0 90 -8l-326 -831q-30 19 -57 43q-116 104 -115 346zM476 124l330 839q42 -21 78 -55q116 -104 116 -346t-116 -346q-115 -104 -292 -105q-62 1 -116 13z" />
<glyph unicode="&#xf9;" d="M100 422q0 -184 92 -298q118 -148 375 -148q166 0 309 66q72 32 110 66v1004h-134v-925l-27 -13q-16 -8 -29 -14q-34 -16 -64 -26q-78 -26 -165 -25q-167 0 -245 65q-88 74 -88 248v690h-134v-690zM336 1682l170 -379h140l-170 379h-140z" />
<glyph unicode="&#xfa;" d="M100 422q0 -184 92 -298q118 -148 375 -148q166 0 309 66q72 32 110 66v1004h-134v-925l-27 -13q-16 -8 -29 -14q-34 -16 -64 -26q-78 -26 -165 -25q-167 0 -245 65q-88 74 -88 248v690h-134v-690zM440 1303h140l170 379h-140z" />
<glyph unicode="&#xfb;" d="M100 422q0 -184 92 -298q118 -148 375 -148q166 0 309 66q72 32 110 66v1004h-134v-925l-27 -13q-16 -8 -29 -14q-34 -16 -64 -26q-78 -26 -165 -25q-167 0 -245 65q-88 74 -88 248v690h-134v-690zM304 1382l240 212l238 -212l-78 -88l-160 143l-162 -143z" />
<glyph unicode="&#xfc;" d="M100 422q0 -184 92 -298q118 -148 375 -148q166 0 309 66q72 32 110 66v1004h-134v-925l-27 -13q-16 -8 -29 -14q-34 -16 -64 -26q-78 -26 -165 -25q-167 0 -245 65q-88 74 -88 248v690h-134v-690zM241 1303v142h142v-142h-142zM703 1303v142h142v-142h-142z" />
<glyph unicode="&#xfd;" horiz-adv-x="1156" d="M50 1112l455 -1126l-279 -676h145l735 1802h-144l-384 -947l-384 947h-144zM475 1303h140l169 379h-140z" />
<glyph unicode="&#xfe;" horiz-adv-x="1155" d="M100 -690h134v746l14 -8l15 -6q149 -66 327 -66q140 0 256 70q112 68 175 185v1h1q1 2 2 5q4 7 7 15q11 26 21 52q29 88 28.5 293t-82.5 333q-80 124 -218 180q-90 36 -190 36q-178 0 -328 -66l-14 -7l-14 -7v611h-134v-2367zM234 208v704q58 38 128 63q58 20 124 29 q52 7 104 7q108 1 196 -55q76 -50 118 -132q44 -84 44 -302q-1 -218 -119 -324q-99 -88 -239 -88q-48 0 -94 6q-59 8 -114 24q-82 24 -148 68z" />
<glyph unicode="&#xff;" horiz-adv-x="1156" d="M50 1112l455 -1126l-279 -676h145l735 1802h-144l-384 -947l-384 947h-144zM276 1303v142h142v-142h-142zM738 1303v142h142v-142h-142z" />
<glyph unicode="&#x152;" horiz-adv-x="1810" d="M75 780q0 442 157 622q76 88 178 134q105 48 202 48q98 0 204 -48q102 -46 178 -134q17 -20 32 -42v200h660v-134h-526v-576h504v-134h-504v-582h550v-134h-684v200q-16 -22 -32 -42q-76 -88 -178 -134q-105 -48 -203 -48t-203 48q-102 46 -178 134q-157 180 -157 622z M208.5 780q-0.5 -390 117.5 -530q117 -140 287 -140t287 140t117 530t-117 530t-287 140t-287 -140t-117.5 -530z" />
<glyph unicode="&#x153;" horiz-adv-x="2005" d="M50 561q0 -187 41 -281q39 -92 113 -160t172 -105q101 -38 215.5 -38.5t216.5 38.5q98 37 171 105q52 48 87 108q32 -58 78 -105q66 -67 155 -105q91 -38 195 -38q133 0 211 16q53 10 161 50v147q-130 -51 -165 -60q-77 -20 -207 -20q-154 0 -256 104t-102 263v28h820v95 q0 321 -157 449q-107 88 -305 87q-104 0 -195 -38q-89 -37 -155 -105q-46 -46 -77 -103q-36 60 -88 109q-155 144 -387 144t-388 -144q-74 -68 -113 -160q-41 -94 -41 -281zM184 562q0 242 115 346t293 104t292 -104q116 -104 116 -346t-116 -346q-115 -104 -292.5 -104 t-292.5 104q-116 104 -115 346zM1136 642q0 158 102 260q100 104 256 104q150 0 219 -57q100 -81 108 -307h-685z" />
<glyph unicode="&#x178;" horiz-adv-x="1071" d="M62 1560h145l329 -742l328 742h144l-406 -918v-642h-132v642zM234 1751v142h142v-142h-142zM696 1751v142h142v-142h-142z" />
<glyph unicode="&#x2c6;" horiz-adv-x="677" d="M100 1382l240 212l238 -212l-78 -88l-161 143l-162 -143z" />
<glyph unicode="&#x2dc;" horiz-adv-x="814" d="M100 1368q46 112 126 139q48 16 104 -5q22 -8 50 -24q12 -7 75 -41.5t108 -34.5t66 55l85 -53q-50 -98 -128 -122q-20 -6 -40 -6q-40 0 -86 21q-18 9 -73 43.5t-67 41.5q-46 24 -82 -6t-48 -56z" />
<glyph unicode="&#x2000;" horiz-adv-x="1065" />
<glyph unicode="&#x2001;" horiz-adv-x="2130" />
<glyph unicode="&#x2002;" horiz-adv-x="1065" />
<glyph unicode="&#x2003;" horiz-adv-x="2130" />
<glyph unicode="&#x2004;" horiz-adv-x="710" />
<glyph unicode="&#x2005;" horiz-adv-x="532" />
<glyph unicode="&#x2006;" horiz-adv-x="355" />
<glyph unicode="&#x2007;" horiz-adv-x="355" />
<glyph unicode="&#x2008;" horiz-adv-x="266" />
<glyph unicode="&#x2009;" horiz-adv-x="426" />
<glyph unicode="&#x200a;" horiz-adv-x="118" />
<glyph unicode="&#x2010;" horiz-adv-x="752" d="M100 504v133h552v-133h-552z" />
<glyph unicode="&#x2011;" horiz-adv-x="752" d="M100 504v133h552v-133h-552z" />
<glyph unicode="&#x2012;" horiz-adv-x="752" d="M100 504v133h552v-133h-552z" />
<glyph unicode="&#x2013;" horiz-adv-x="1053" d="M100 504v133h853v-133h-853z" />
<glyph unicode="&#x2014;" horiz-adv-x="1492" d="M100 504v133h1292v-133h-1292z" />
<glyph unicode="&#x2018;" horiz-adv-x="356" d="M100 1388h142v142h-56l70 146h-86l-70 -146v-142z" />
<glyph unicode="&#x2019;" horiz-adv-x="356" d="M100 1388h86l70 146v142h-142v-142h56z" />
<glyph unicode="&#x201a;" horiz-adv-x="356" d="M100 -146h86l70 146v142h-142v-142h56z" />
<glyph unicode="&#x201c;" horiz-adv-x="596" d="M100 1388h142v142h-56l70 146h-86l-70 -146v-142zM340 1388h142v142h-56l70 146h-86l-70 -146v-142z" />
<glyph unicode="&#x201d;" horiz-adv-x="596" d="M100 1388h86l70 146v142h-142v-142h56zM340 1388h86l70 146v142h-142v-142h56z" />
<glyph unicode="&#x201e;" horiz-adv-x="596" d="M100 -146h86l70 146v142h-142v-142h56zM340 -146h86l70 146v142h-142v-142h56z" />
<glyph unicode="&#x2022;" horiz-adv-x="511" d="M100 811q0 64 46 109.5t110 45.5t109.5 -45t45.5 -110q0 -64 -45.5 -109.5t-109.5 -45.5t-110 45t-46 110z" />
<glyph unicode="&#x2026;" horiz-adv-x="1062" d="M100 0v142h142v-142h-142zM460 0v142h142v-142h-142zM820 0v142h142v-142h-142z" />
<glyph unicode="&#x202f;" horiz-adv-x="426" />
<glyph unicode="&#x2039;" horiz-adv-x="723" d="M75 786l379 648h169l-379 -648l379 -650h-169z" />
<glyph unicode="&#x203a;" horiz-adv-x="723" d="M100 136l378 650l-378 648h170l378 -648l-378 -650h-170z" />
<glyph unicode="&#x205f;" horiz-adv-x="532" />
<glyph unicode="&#x20ac;" horiz-adv-x="1023" d="M1 588v134h109q0 62 1 116h-110v134h116q11 159 37 230q42 116 122 202t190 132q112 48 242 47q108 0 216 -22v-138q-104 23 -216 23q-210 0 -336 -138q-92 -100 -116 -336h594l-30 -134h-573q-1 -28 -1 -58t1 -58h547l-30 -134h-508q25 -236 116 -336q126 -138 336 -138 q104 0 212 22l4 2v-139l-14 -3q-108 -20 -202 -20q-130 0 -242 48q-108 46 -190 131q-139 149 -162 433h-113z" />
<glyph unicode="&#x2122;" horiz-adv-x="1590" d="M100 1429v131h570v-131h-215v-594h-139v594h-216zM758 835v725h148l218 -561l216 561h150l-1 -1v-724h-139v445l-159 -445h-136l-157 445v-445h-140z" />
<glyph unicode="&#x2150;" horiz-adv-x="1346" d="M100 1305v108h220v-760h-102v652h-118zM118 0l859 1418h119l-860 -1418h-118zM868 652v108h378v-106l-206 -654h-110l202 652h-264z" />
<glyph unicode="&#x2151;" horiz-adv-x="1399" d="M100 1305v108h220v-760h-102v652h-118zM118 0l859 1418h119l-860 -1418h-118zM808 501q0 97 20 139q18 40 52 71q70 65 174 65q52 0 96 -18q44 -16 77 -47q34 -31 53 -71q19 -42 19 -172q-2 -34 -5 -66q-8 -88 -36 -160q-84 -190 -307 -252l-35 94q224 72 244 220 q-64 -20 -110 -20q-54 0 -92 14q-40 14 -72 40q-78 66 -78 163zM909 528q0 -76 41 -114q42 -38 104 -39q62 1 103 39q42 38 41.5 114t-41.5 114q-41 39 -103 39t-104 -39q-41 -38 -41 -114z" />
<glyph unicode="&#x2152;" horiz-adv-x="1893" d="M100 1305v108h220v-760h-102v652h-118zM118 0l859 1418h119l-860 -1418h-118zM887 657v108h219v-760h-100v652h-119zM1276 336v101q0 72 20 137q20 62 56 109q35 45 81 69q47 26 101 26q53 0 102 -26q46 -24 81 -69q36 -47 56 -109q21 -64 21 -137v-101q0 -74 -21 -138 q-20 -62 -56 -108q-35 -46 -82 -70q-49 -24 -101 -25q-52 1 -100 25q-47 24 -82 70q-36 46 -56 108q-20 64 -20 138zM1380 336q0 -98 42 -164q21 -32 48 -50q30 -20 64 -20t64 20q28 18 50 50q42 66 41 164v101q1 98 -41 163q-21 34 -49 52q-31 18 -65 18t-64 -19 q-28 -18 -48 -51q-42 -66 -42 -163v-101z" />
<glyph unicode="&#x2153;" horiz-adv-x="1431" d="M100 1306v108h220v-760h-102v652h-118zM118 0l859 1418h119l-860 -1418h-118zM867 220q0 -104 66 -166q64 -64 167 -63q63 0 114 24q52 25 80 69q38 56 38 122q0 82 -48 136q-16 18 -36 34q-4 4 -26 20q22 22 26 22q11 8 24 23q42 46 42 127q0 64 -35 118q-29 42 -77 66 q-48 22 -108 22q-97 0 -158 -60q-63 -62 -63 -158v-4h101v4q0 64 50 94q17 10 39 14q8 2 18 4h13q6 0 21 -1q14 -2 28 -6q37 -9 53 -35q18 -26 17 -60q0 -20 -6 -40q-7 -24 -25 -43q-43 -48 -119 -48v-85q93 0 138 -52q17 -19 24 -46q6 -18 6 -44q1 -34 -19 -62 q-18 -28 -58 -40q-12 -4 -30 -8h-12h-12h-8h-6q-11 0 -20 3q-26 5 -43 15q-55 32 -55 104v7h-101v-7z" />
<glyph unicode="&#x2154;" horiz-adv-x="1436" d="M100 1336h100v8q0 59 30 93q34 37 90 37q74 0 104 -55q10 -17 14 -39l1 -8q1 -4 1 -6v-8v-4q0 -52 -20 -90q-14 -26 -51 -74l-2 -2q-1 -1 -35 -40q-2 -2 -7 -8l-5 -5l-4 -5l-4 -5l-4 -5l-10 -10q-10 -12 -21 -25q-4 -5 -9 -11l-4 -4l-4 -5q-48 -55 -82 -95 q-28 -32 -34 -40l-12 -15v-105h391v109h-249q32 41 46 55q2 2 4 6l3 4l3 3q8 9 14 17l14 16l14 14q16 18 30 35q11 13 21 25q4 4 8 10l3 4l3 2q5 6 6 7l2 3l9 10l9 12q9 11 17 22q18 24 30 51q32 63 32 139q0 38 -13 76q-14 41 -39 74q-61 78 -170 78q-96 0 -158 -65 t-62 -173v-8zM192 0l858 1418h119l-859 -1418h-118zM872 220q0 -104 66 -166q64 -64 166 -63q64 0 115 24q53 25 81 69q36 56 36 122q0 82 -47 136q-17 18 -37 34q-6 4 -26 20q22 22 26 22q12 8 24 23q42 46 42 127q0 64 -34 118q-28 42 -77 66q-47 22 -107 22 q-98 0 -160 -60q-62 -62 -62 -158v-4h101v4q-1 64 49 94q18 10 40 14q8 2 18 4h14q6 0 20 -1q13 -2 28 -6q36 -9 52 -35q18 -26 18 -60q0 -20 -6 -40q-8 -24 -26 -43q-42 -48 -118 -48v-85q94 0 138 -52q16 -19 24 -46q6 -18 6 -44q0 -34 -20 -62q-17 -28 -58 -40 q-14 -4 -30 -8h-12h-12h-6h-8q-12 0 -19 3q-26 5 -43 15q-56 32 -56 104v7h-100v-7z" />
<glyph unicode="&#x2155;" horiz-adv-x="1359" d="M100 1305v108h220v-760h-102v652h-118zM118 0l859 1418h119l-860 -1418h-118zM794 209h96q0 -42 40 -80t98 -38t97 39q40 40 40 94v22q1 30 -13 58q-14 26 -38 44q-13 12 -29 18q-27 12 -57 12q-48 0 -86 -19q-19 -9 -24 -15h-92l27 418h342v-108h-248l-14 -204 q68 37 134 27q62 -7 104 -39q41 -32 65 -92q22 -58 23 -134q-1 -72 -37 -127q-30 -47 -80 -71q-52 -24 -114 -24q-102 0 -168 64q-64 62 -66 155z" />
<glyph unicode="&#x2156;" horiz-adv-x="1497" d="M100 1179v7q0 106 62 174q60 64 158 64q109 0 170 -78q26 -32 39 -74q13 -38 13 -75q0 -75 -32 -139q-12 -26 -30 -52q-7 -10 -17 -22l-9 -11l-9 -11l-2 -2q-3 -4 -71 -84l-14 -14l-14 -16q-16 -19 -24 -29q-16 -17 -46 -55h249v-109h-391v105l12 14q11 14 116 136 q16 18 38 44l10 10l4 6l4 4q10 12 16 18q32 38 35 40l3 3q38 48 50 73q20 40 20 91v3v8q0 6 -2 14q-4 22 -14 40q-30 54 -104 54q-58 0 -90 -36q-30 -34 -30 -94v-7h-100zM270 0l860 1418h118l-860 -1418h-118zM933 209h96q1 -42 40 -80q40 -38 97 -38q58 0 98 39 q40 40 40 94v22q0 30 -14 58q-14 26 -38 44q-12 12 -28 18q-28 12 -58 12q-48 0 -85 -19q-19 -9 -25 -15h-92l28 418h342v-108h-248l-14 -204q68 37 134 27q62 -7 104 -39t65 -92q23 -58 23 -134q0 -72 -37 -127q-31 -47 -81 -71q-52 -24 -114 -24q-102 0 -168 64 q-64 62 -65 155z" />
<glyph unicode="&#x2157;" horiz-adv-x="1443" d="M100 890v6h100v-6q0 -72 56 -104q18 -10 43 -16q9 -2 19 -2q7 0 15 -1q11 0 23 1q16 2 30 7q40 13 58 41q20 28 20 62q0 24 -6 44q-7 26 -24 45q-46 52 -138 52v85q76 0 118 48q17 18 26 43q6 20 6 40q0 34 -18 60q-16 23 -52 35q-13 4 -28 6q-10 2 -20 2q-7 0 -14 -1 q-10 0 -18 -3q-22 -4 -40 -14q-50 -29 -49 -94v-5h-101v5q0 97 63 158q61 60 159 60q60 0 108 -23q48 -24 76 -66q35 -53 35 -118q0 -80 -42 -127q-12 -14 -24 -22q-4 0 -27 -23q22 -17 27 -19q21 -14 37 -34q46 -54 46 -136q0 -66 -36 -122q-30 -44 -81 -70 q-51 -24 -114 -24q-102 0 -167 64q-66 64 -66 166zM202 0l859 1418h119l-860 -1418h-118zM878 209h96q0 -42 40 -80t98 -38t97 39q40 40 40 94v22q1 30 -13 58q-14 26 -38 44q-13 12 -29 18q-27 12 -57 12q-48 0 -86 -19q-19 -9 -24 -15h-92l27 418h342v-108h-248l-14 -204 q68 37 134 27q62 -7 104 -39q41 -32 65 -92q22 -58 23 -134q-1 -72 -37 -127q-30 -47 -80 -71q-52 -24 -114 -24q-102 0 -168 64q-64 62 -66 155z" />
<glyph unicode="&#x2158;" horiz-adv-x="1506" d="M100 900v91l245 501h111l-237 -484h190v183h101v-183h46v-108h-46v-168h-101v168h-309zM274 0l860 1418h118l-860 -1418h-118zM942 209h96q2 -42 40 -80q40 -38 96 -38q58 0 98 39q40 40 40 94v22q0 30 -14 58q-14 26 -38 44q-13 12 -28 18q-28 12 -58 12q-48 0 -84 -19 q-19 -9 -25 -15h-93l28 418h342v-108h-248l-14 -204q68 37 134 27q62 -7 104 -39t66 -92q22 -58 22 -134q0 -72 -36 -127q-30 -47 -81 -71q-53 -24 -115 -24q-102 0 -167 64q-63 62 -65 155z" />
<glyph unicode="&#x2159;" horiz-adv-x="1370" d="M100 1305v108h220v-760h-102v652h-118zM118 0l859 1418h119l-860 -1418h-118zM780 297q2 34 4 67q9 88 37 160q85 190 307 252l34 -94q-225 -71 -244 -221q65 21 111 21q53 0 91 -14q40 -14 72 -42q78 -66 78 -162t-19 -138t-53 -72q-70 -64 -173 -64q-51 0 -96 17 q-43 17 -77 47t-54 72q-18 42 -18 171zM880 237q0 -77 42 -114q42 -39 103 -39t103 39q41 38 41 114.5t-41 114.5q-42 38 -103 38t-103 -38t-42 -115z" />
<glyph unicode="&#x215a;" horiz-adv-x="1438" d="M100 860h96q1 -42 40 -80q40 -38 97 -38t97 40t40 94v21q0 30 -13 58q-14 26 -38 45q-13 12 -29 18q-28 12 -57 12q-48 0 -85 -20q-18 -10 -24 -15h-93l27 418h342v-108h-248l-14 -204q68 37 134 27q62 -8 104 -39q42 -32 66 -91q22 -58 22 -134q0 -72 -36 -128 q-30 -46 -80 -70q-52 -24 -115 -24q-101 0 -167 64q-64 62 -66 154zM245 0l859 1418h118l-859 -1418h-118zM848 297q2 34 5 67q9 88 37 160q84 190 306 252l34 -94q-226 -71 -244 -221q66 21 112 21q54 0 91 -14q40 -14 72 -42q78 -66 77.5 -162t-18.5 -138q-20 -42 -54 -72 q-70 -64 -172 -64q-50 0 -96 17q-44 17 -78 47t-53 72t-19 171zM948 237q0 -77 42 -114q42 -39 104 -39t103 39q41 38 41 114.5t-41 114.5t-103 38t-104 -38t-42 -115z" />
<glyph unicode="&#x215b;" horiz-adv-x="1409" d="M100 1306v108h220v-760h-102v652h-118zM118 0l859 1418h119l-860 -1418h-118zM824 214v44q0 60 38 112q38 53 92 73q-38 16 -63 60q-23 40 -23 85v26q0 36 16 68q14 32 41 58q57 54 141 54t142 -54q28 -26 42 -58t14 -68v-26q0 -44 -23 -86q-26 -44 -62 -59 q56 -18 93 -72q37 -53 37 -113v-44q0 -44 -19 -84q-18 -39 -51 -68q-71 -62 -173 -62t-172 62q-33 30 -51 68q-19 40 -19 84zM924 218q0 -52 41 -86t101 -34t102 34t42 86v36q0 50 -42 86q-42 34 -102 34t-101 -34q-41 -35 -41 -86v-36zM960 590q0 -36 30 -64q32 -28 76 -29 q45 1 77 29q31 28 31 64v21q0 37 -31 65q-33 28 -77 28q-45 0 -76 -28q-30 -28 -30 -65v-21z" />
<glyph unicode="&#x215c;" horiz-adv-x="1452" d="M100 1031q0 -103 66 -167q64 -62 166 -62q64 0 115 24q53 25 81 69q36 56 36 122q0 83 -47 136q-17 17 -37 33q-6 4 -26 20q22 23 26 23q12 8 24 22q42 46 42 127q0 65 -34 118q-28 42 -77 66q-47 23 -107 23q-98 0 -160 -60q-62 -61 -62 -158v-5h101v5q-1 64 49 94 q18 10 40 14q8 2 18 3h14h20q13 -2 28 -6q36 -10 52 -36q18 -26 18 -60q0 -20 -6 -40q-8 -24 -26 -42q-42 -48 -118 -48v-86q94 0 138 -52q16 -20 24 -46q6 -18 6 -43q0 -35 -20 -63q-17 -28 -58 -40q-14 -4 -30 -7l-12 -1h-12h-6h-8q-12 0 -19 4q-26 4 -43 14 q-56 32 -56 105v7h-100v-7zM162 0l858 1418h119l-859 -1418h-118zM867 214v44q0 60 38 112q37 53 92 73q-38 16 -63 60q-22 40 -22 85v26q0 36 15 68q13 32 41 58q58 54 142 54q83 0 141 -54q27 -26 42 -58t15 -68v-26q0 -44 -24 -86q-26 -44 -62 -59q56 -18 94 -72 q36 -53 36 -113v-44q0 -44 -18 -84q-18 -39 -52 -68q-70 -62 -172 -62t-172 62q-34 30 -52 68q-19 40 -19 84zM967 218q0 -52 41 -86q42 -34 102 -34t102 34t41 86v36q1 50 -41 86q-42 34 -102 34t-102 -34q-41 -35 -41 -86v-36zM1003 590q1 -36 31 -64q32 -28 76 -29 q44 1 76 29q31 28 31 64v21q0 37 -31 65q-32 28 -76 28t-76 -28q-30 -28 -31 -65v-21z" />
<glyph unicode="&#x215d;" horiz-adv-x="1580" d="M100 880h96q1 -42 40 -80q40 -38 97 -38t97 40t40 94v21q0 30 -13 58q-14 26 -38 45q-13 12 -29 18q-28 12 -57 12q-48 0 -85 -20q-18 -10 -24 -15h-93l27 418h342v-108h-248l-14 -204q68 37 134 27q62 -8 104 -39q42 -32 66 -91q22 -58 22 -134q0 -72 -36 -128 q-30 -46 -80 -70q-52 -24 -115 -24q-101 0 -167 64q-64 62 -66 154zM289 0l859 1418h118l-859 -1418h-118zM995 214v44q-1 60 37 112q38 53 93 73q-38 16 -63 60q-23 40 -23 85v26q-1 36 15 68q14 32 42 58q58 54 142 54t141 -54q27 -26 41 -58q16 -32 16 -68v-26 q0 -44 -24 -86q-26 -44 -62 -59q56 -18 93 -72q37 -53 37 -113v-44q0 -44 -19 -84q-18 -39 -51 -68q-70 -62 -172 -62t-173 62q-33 30 -51 68q-19 40 -19 84zM1094 218q0 -52 42 -86t102 -34t101 34t41 86v36q0 50 -41 86q-41 34 -101 34t-102 -34q-42 -35 -42 -86v-36z M1130 590q0 -36 31 -64q33 -28 77 -29q45 1 76 29q30 28 30 64v21q0 37 -30 65q-32 28 -76 28q-45 0 -77 -28q-31 -28 -31 -65v-21z" />
<glyph unicode="&#x215e;" horiz-adv-x="1409" d="M100 1325v108h378v-105l-205 -654h-111l203 651h-265zM118 0l859 1418h119l-860 -1418h-118zM824 214v44q0 60 38 112q38 53 92 73q-38 16 -63 60q-23 40 -23 85v26q0 36 16 68q14 32 41 58q57 54 141 54t142 -54q28 -26 42 -58t14 -68v-26q0 -44 -23 -86 q-26 -44 -62 -59q56 -18 93 -72q37 -53 37 -113v-44q0 -44 -19 -84q-18 -39 -51 -68q-71 -62 -173 -62t-172 62q-33 30 -51 68q-19 40 -19 84zM924 218q0 -52 41 -86t101 -34t102 34t42 86v36q0 50 -42 86q-42 34 -102 34t-101 -34q-41 -35 -41 -86v-36zM960 590 q0 -36 30 -64q32 -28 76 -29q45 1 77 29q31 28 31 64v21q0 37 -31 65q-33 28 -77 28q-45 0 -76 -28q-30 -28 -30 -65v-21z" />
<glyph unicode="&#x25fc;" horiz-adv-x="1112" d="M0 0v1112h1112v-1112h-1112z" />
<glyph unicode="&#xfb03;" horiz-adv-x="1396" d="M100 0h134v976h396v-976h2v-4h133v980h398v-980h133v1116h-133v-2h-398v172q-1 158 59 222q10 11 24 21t32 18l-2 2q55 29 132 29q120 0 246 -84v134q-126 84 -291 84q-111 0 -193 -65q-14 -7 -26 -17q-152 82 -312 82q-164 0 -265 -140q-69 -96 -69 -286v-1282z M234 1110v172q0 158 60 222q66 70 185 70q94 0 186 -64q-35 -80 -35 -228v-172h-396z" />
<glyph unicode="&#xfb04;" horiz-adv-x="1396" d="M100 0h134v976h398v-980h137v980h281v134h-281v172q1 158 59 222q64 69 169 69.5t163 -40.5v-1533h136v1614q-110 94 -304 94q-148 0 -242 -82q-2 2 -4 0q-152 82 -312 82q-164 0 -265 -140q-69 -96 -69 -286v-1282zM234 1110v172q0 158 60 222q66 70 185 70 q94 0 186 -64q-36 -80 -33 -228v-172h-398z" />
<glyph horiz-adv-x="1130" d="M50 506q0 -242 140 -386q66 -68 156 -106t194 -38h42q24 0 46 1q54 2 98 10q114 20 171 82v-69h133v980q-60 52 -133 87q-161 79 -357 79q-104 0 -194 -38q-90 -37 -156 -106q-66 -68 -102 -160q-38 -94 -38 -336zM183 561.5q0 242.5 101 346.5q100 104 256 104 q86 0 165 -18q108 -24 192 -80v-664q-62 -84 -169 -116q-74 -24 -188 -24q-156 0 -256 105q-101 104 -101 346.5z" />
<glyph horiz-adv-x="1130" d="M50 506q0 -242 140 -386q66 -68 156 -106t194 -38h42q24 0 46 1q54 2 98 10q114 20 171 82v-69h133v980q-60 52 -133 87q-161 79 -357 79q-104 0 -194 -38q-90 -37 -156 -106q-66 -68 -102 -160q-38 -94 -38 -336zM183 561.5q0 242.5 101 346.5q100 104 256 104 q86 0 165 -18q108 -24 192 -80v-664q-62 -84 -169 -116q-74 -24 -188 -24q-156 0 -256 105q-101 104 -101 346.5zM378 1682l169 -379h140l-169 379h-140z" />
<glyph horiz-adv-x="1130" d="M50 506q0 -242 140 -386q66 -68 156 -106t194 -38h42q24 0 46 1q54 2 98 10q114 20 171 82v-69h133v980q-60 52 -133 87q-161 79 -357 79q-104 0 -194 -38q-90 -37 -156 -106q-66 -68 -102 -160q-38 -94 -38 -336zM183 561.5q0 242.5 101 346.5q100 104 256 104 q86 0 165 -18q108 -24 192 -80v-664q-62 -84 -169 -116q-74 -24 -188 -24q-156 0 -256 105q-101 104 -101 346.5zM544 1303h140l169 379h-140z" />
<glyph horiz-adv-x="1130" d="M50 506q0 -242 140 -386q66 -68 156 -106t194 -38h42q24 0 46 1q54 2 98 10q114 20 171 82v-69h133v980q-60 52 -133 87q-161 79 -357 79q-104 0 -194 -38q-90 -37 -156 -106q-66 -68 -102 -160q-38 -94 -38 -336zM183 561.5q0 242.5 101 346.5q100 104 256 104 q86 0 165 -18q108 -24 192 -80v-664q-62 -84 -169 -116q-74 -24 -188 -24q-156 0 -256 105q-101 104 -101 346.5zM346 1382l240 212l238 -212l-78 -88l-160 143l-162 -143z" />
<glyph horiz-adv-x="1130" d="M50 506q0 -242 140 -386q66 -68 156 -106t194 -38h42q24 0 46 1q54 2 98 10q114 20 171 82v-69h133v980q-60 52 -133 87q-161 79 -357 79q-104 0 -194 -38q-90 -37 -156 -106q-66 -68 -102 -160q-38 -94 -38 -336zM183 561.5q0 242.5 101 346.5q100 104 256 104 q86 0 165 -18q108 -24 192 -80v-664q-62 -84 -169 -116q-74 -24 -188 -24q-156 0 -256 105q-101 104 -101 346.5zM275 1368q47 112 127 139q48 16 103 -5q23 -8 51 -24q12 -7 74 -41.5t108 -34.5t66 55l86 -53q-50 -98 -128 -122q-20 -6 -42 -6q-40 0 -85 21 q-18 9 -72.5 43.5t-68.5 41.5q-46 24 -82 -6t-46 -56z" />
<glyph horiz-adv-x="1130" d="M50 506q0 -242 140 -386q66 -68 156 -106t194 -38h42q24 0 46 1q54 2 98 10q114 20 171 82v-69h133v980q-60 52 -133 87q-161 79 -357 79q-104 0 -194 -38q-90 -37 -156 -106q-66 -68 -102 -160q-38 -94 -38 -336zM183 561.5q0 242.5 101 346.5q100 104 256 104 q86 0 165 -18q108 -24 192 -80v-664q-62 -84 -169 -116q-74 -24 -188 -24q-156 0 -256 105q-101 104 -101 346.5zM294 1303v142h142v-142h-142zM756 1303v142h142v-142h-142z" />
<glyph horiz-adv-x="1130" d="M50 506q0 -242 140 -386q66 -68 156 -106t194 -38h42q24 0 46 1q54 2 98 10q114 20 171 82v-69h133v980q-60 52 -133 87q-161 79 -357 79q-104 0 -194 -38q-90 -37 -156 -106q-66 -68 -102 -160q-38 -94 -38 -336zM183 561.5q0 242.5 101 346.5q100 104 256 104 q86 0 165 -18q108 -24 192 -80v-664q-62 -84 -169 -116q-74 -24 -188 -24q-156 0 -256 105q-101 104 -101 346.5zM426 1438q0 36 13 66q12 30 35 51q22 21 50 31q60 24 120 0q28 -10 50 -31t35 -51t13 -66q0 -38 -13 -67q-13 -30 -35 -50t-50 -31t-60 -11t-60 11t-50 31 t-35 50t-13 67zM535 1438q1 -14 5 -24q4 -8 9 -14q14 -14 35 -14q20 0 34 14q6 6 10 14q4 11 4 24q0 14 -4 24q-4 8 -10 14q-14 14 -34 14q-21 0 -35 -14q-5 -6 -9 -14q-4 -10 -5 -24z" />
<glyph horiz-adv-x="1130" d="M50 507q0 -243 140 -387q66 -69 156 -106q92 -38 194 -38h42q24 0 46 1q54 1 98 9q114 20 171 82v-234q0 -153 -82 -222q-83 -70 -265 -70q-194 0 -340 44l-30 -130q160 -46 370 -47q270 0 390 140q90 106 90 285v1147q-60 52 -133 88q-161 79 -357 79q-104 0 -194 -38 q-88 -37 -156 -106q-66 -69 -102 -160q-38 -94 -38 -337zM183.5 561q0.5 243 100.5 348t256 105q86 0 165 -18q108 -24 192 -80v-666q-62 -84 -169 -117q-74 -23 -188 -23q-156 0 -256 104q-101 104 -100.5 347z" />
<glyph d="M100 422q0 -184 92 -298q118 -148 375 -148q152 0 285 56v-208q0 -153 -82 -222q-82 -70 -264 -70q-194 0 -340 44l-30 -130q160 -46 370 -47q268 0 388 140q92 106 92 285v1286h-134v-923l-27 -13q-16 -8 -29 -14q-34 -16 -64 -26q-78 -24 -165 -24q-167 0 -245 64 q-88 74 -88 248v688h-134v-688z" />
<glyph d="M100 422q0 -184 92 -298q118 -148 375 -148q152 0 285 56v-208q0 -153 -82 -222q-82 -70 -264 -70q-194 0 -340 44l-30 -130q160 -46 370 -47q268 0 388 140q92 106 92 285v1286h-134v-923l-27 -13q-16 -8 -29 -14q-34 -16 -64 -26q-78 -24 -165 -24q-167 0 -245 64 q-88 74 -88 248v688h-134v-688zM500 1303h140l170 379h-140z" />
<glyph d="M100 422q0 -184 92 -298q118 -148 375 -148q152 0 285 56v-208q0 -153 -82 -222q-82 -70 -264 -70q-194 0 -340 44l-30 -130q160 -46 370 -47q268 0 388 140q92 106 92 285v1286h-134v-923l-27 -13q-16 -8 -29 -14q-34 -16 -64 -26q-78 -24 -165 -24q-167 0 -245 64 q-88 74 -88 248v688h-134v-688zM246 1303v142h142v-142h-142zM708 1303v142h142v-142h-142z" />
<glyph horiz-adv-x="333" d="M100 -690h134v1802h-134v-1802zM100 1214h134v134h-134v-134z" />
</font>
</defs>
</svg>
